<svg width="274" height="171" viewBox="0 0 274 171" fill="none" xmlns="http://www.w3.org/2000/svg">
<path d="M25.2647 165.984C27.007 167.727 29.7319 169.205 30.4308 170.558H266.142C268.142 166.441 275.727 148.36 272.952 115.705C269.767 78.2219 229.274 31.1398 189.692 16.9694C150.109 2.79904 135.55 28.8542 112.801 43.9388C90.0527 59.0234 59.1145 43.4817 28.1764 62.6802C-2.7618 81.8788 -4.58169 118.905 5.42772 138.103C15.4371 157.302 21.9977 162.718 25.2647 165.984Z" fill="#509FFE"/>
<path d="M79.8892 132.458C84.7239 132.458 98.6926 129.316 98.6926 129.316H61.0858C61.0858 129.316 75.055 132.458 79.8892 132.458Z" fill="#212B36"/>
<path d="M79.8892 132.458C84.7239 132.458 98.6926 129.316 98.6926 129.316H61.0858C61.0858 129.316 75.055 132.458 79.8892 132.458Z" stroke="#212B36" stroke-miterlimit="10" stroke-linecap="round" stroke-linejoin="round"/>
<path d="M75.5801 136.767H84.1974V130.887H75.5801V136.767Z" fill="#212B36" stroke="#212B36" stroke-miterlimit="10" stroke-linecap="round" stroke-linejoin="round"/>
<path d="M61.985 121.813H69.2418V106.698H61.985V121.813Z" fill="#212B36" stroke="#212B36" stroke-miterlimit="10" stroke-linecap="round" stroke-linejoin="round"/>
<path d="M74.3062 162.058H85.4725V136.767H74.3062V162.058Z" fill="#6C859B" stroke="#212B36" stroke-miterlimit="10" stroke-linecap="round" stroke-linejoin="round"/>
<path d="M79.8891 133.827H89.3943L96.5112 140.913" stroke="#212B36" stroke-miterlimit="10" stroke-linecap="round" stroke-linejoin="round"/>
<path d="M47.9312 108.428H79.2147C82.8918 108.428 85.7954 105.317 85.5268 101.666L83.0525 68.035C82.8099 64.741 80.0563 62.1928 76.7398 62.1928H50.4055C47.0897 62.1928 44.3354 64.741 44.0935 68.035L41.6186 101.666C41.3499 105.317 44.2536 108.428 47.9312 108.428Z" fill="#92EECC"/>
<path d="M47.9312 108.428H79.2147C82.8917 108.428 85.7954 105.317 85.5268 101.666L83.0525 68.035C82.8099 64.741 80.0563 62.1928 76.7398 62.1928H50.4055C47.0897 62.1928 44.3354 64.741 44.0935 68.035L41.6186 101.666C41.3499 105.317 44.2536 108.428 47.9312 108.428Z" stroke="#212B36" stroke-miterlimit="10" stroke-linecap="round" stroke-linejoin="round"/>
<path d="M47.1667 101.666L49.641 68.0344C49.8835 64.7416 52.6372 62.1928 55.953 62.1928H76.7397C80.0561 62.1928 82.8098 64.7416 83.0524 68.0344L85.5267 101.666C85.7953 105.318 82.8916 108.428 79.2146 108.428H53.4793C49.8011 108.428 46.898 105.318 47.1667 101.666Z" fill="#92EECC"/>
<path d="M47.1667 101.666L49.641 68.0344C49.8835 64.7416 52.6372 62.1928 55.953 62.1928H76.7397C80.0561 62.1928 82.8098 64.7416 83.0524 68.0344L85.5267 101.666C85.7953 105.318 82.8916 108.428 79.2146 108.428H53.4793C49.8011 108.428 46.898 105.318 47.1667 101.666Z" stroke="#212B36" stroke-miterlimit="10" stroke-linecap="round" stroke-linejoin="round"/>
<path d="M61.0859 165.593C61.0859 166.186 61.6351 166.628 62.2175 166.501C65.6395 165.758 75.8896 163.608 79.8893 163.608C83.8884 163.608 94.1391 165.758 97.5611 166.501C98.1429 166.628 98.6927 166.186 98.6927 165.593C98.6927 164.442 97.8879 163.449 96.7581 163.208C92.7524 162.351 83.612 160.487 79.8893 160.487C76.166 160.487 67.0261 162.351 63.0199 163.208C61.8901 163.449 61.0859 164.442 61.0859 165.593Z" fill="#212B36"/>
<path d="M61.0859 165.593C61.0859 166.186 61.6351 166.628 62.2175 166.501C65.6395 165.758 75.8896 163.608 79.8893 163.608C83.8884 163.608 94.1391 165.758 97.5611 166.501C98.1429 166.628 98.6927 166.186 98.6927 165.593C98.6927 164.442 97.8879 163.449 96.7581 163.208C92.7524 162.351 83.612 160.487 79.8893 160.487C76.166 160.487 67.0261 162.351 63.0199 163.208C61.8901 163.449 61.0859 164.442 61.0859 165.593Z" stroke="#212B36" stroke-miterlimit="10" stroke-linecap="round" stroke-linejoin="round"/>
<path d="M96.9508 166.913C96.9508 165.956 97.7307 165.179 98.6926 165.179C99.6546 165.179 100.434 165.956 100.434 166.913C100.434 167.872 99.6546 168.648 98.6926 168.648C97.7307 168.648 96.9508 167.872 96.9508 166.913ZM95.4764 166.913C95.4764 168.682 96.9164 170.116 98.6926 170.116C100.469 170.116 101.908 168.682 101.908 166.913C101.908 165.145 100.469 163.711 98.6926 163.711C96.9164 163.711 95.4764 165.145 95.4764 166.913Z" fill="#92EECC"/>
<path d="M96.9508 166.913C96.9508 165.956 97.7307 165.179 98.6926 165.179C99.6546 165.179 100.434 165.956 100.434 166.913C100.434 167.872 99.6546 168.648 98.6926 168.648C97.7307 168.648 96.9508 167.872 96.9508 166.913ZM95.4764 166.913C95.4764 168.682 96.9164 170.116 98.6926 170.116C100.469 170.116 101.908 168.682 101.908 166.913C101.908 165.145 100.469 163.711 98.6926 163.711C96.9164 163.711 95.4764 165.145 95.4764 166.913Z" stroke="#212B36" stroke-miterlimit="10" stroke-linecap="round" stroke-linejoin="round"/>
<path d="M78.1472 166.913C78.1472 165.956 78.9271 165.179 79.8891 165.179C80.8511 165.179 81.631 165.956 81.631 166.913C81.631 167.872 80.8511 168.648 79.8891 168.648C78.9271 168.648 78.1472 167.872 78.1472 166.913ZM76.6735 166.913C76.6735 168.682 78.1129 170.116 79.8891 170.116C81.6654 170.116 83.1048 168.682 83.1048 166.913C83.1048 165.145 81.6654 163.711 79.8891 163.711C78.1129 163.711 76.6735 165.145 76.6735 166.913Z" fill="#92EECC"/>
<path d="M78.1472 166.913C78.1472 165.956 78.9271 165.179 79.8891 165.179C80.8511 165.179 81.631 165.956 81.631 166.913C81.631 167.872 80.8511 168.648 79.8891 168.648C78.9271 168.648 78.1472 167.872 78.1472 166.913ZM76.6735 166.913C76.6735 168.682 78.1129 170.116 79.8891 170.116C81.6654 170.116 83.1048 168.682 83.1048 166.913C83.1048 165.145 81.6654 163.711 79.8891 163.711C78.1129 163.711 76.6735 165.145 76.6735 166.913Z" stroke="#212B36" stroke-miterlimit="10" stroke-linecap="round" stroke-linejoin="round"/>
<path d="M59.7345 166.913C59.7345 165.956 60.5144 165.179 61.4763 165.179C62.4383 165.179 63.2182 165.956 63.2182 166.913C63.2182 167.872 62.4383 168.648 61.4763 168.648C60.5144 168.648 59.7345 167.872 59.7345 166.913ZM58.2607 166.913C58.2607 168.682 59.7001 170.116 61.4763 170.116C63.2526 170.116 64.6926 168.682 64.6926 166.913C64.6926 165.145 63.2526 163.711 61.4763 163.711C59.7001 163.711 58.2607 165.145 58.2607 166.913Z" fill="#92EECC"/>
<path d="M59.7345 166.913C59.7345 165.956 60.5144 165.179 61.4763 165.179C62.4383 165.179 63.2182 165.956 63.2182 166.913C63.2182 167.872 62.4383 168.648 61.4763 168.648C60.5144 168.648 59.7345 167.872 59.7345 166.913ZM58.2607 166.913C58.2607 168.682 59.7001 170.116 61.4763 170.116C63.2526 170.116 64.6926 168.682 64.6926 166.913C64.6926 165.145 63.2526 163.711 61.4763 163.711C59.7001 163.711 58.2607 165.145 58.2607 166.913Z" stroke="#212B36" stroke-miterlimit="10" stroke-linecap="round" stroke-linejoin="round"/>
<path d="M70.3842 119.442H107.914C110.483 119.442 112.565 121.516 112.565 124.074V124.685C112.565 127.243 110.483 129.317 107.914 129.317H70.3842V119.442Z" fill="#92EECC"/>
<path d="M70.3842 119.442H107.914C110.483 119.442 112.565 121.516 112.565 124.074V124.685C112.565 127.243 110.483 129.317 107.914 129.317H70.3842V119.442Z" stroke="#212B36" stroke-miterlimit="10" stroke-linecap="round" stroke-linejoin="round"/>
<path d="M51.622 129.316H73.0628C75.4979 129.316 77.4717 127.351 77.4717 124.926V123.833C77.4717 121.407 75.4979 119.442 73.0628 119.442H51.622C49.1874 119.442 47.2131 121.407 47.2131 123.833V124.926C47.2131 127.351 49.1874 129.316 51.622 129.316Z" fill="#92EECC"/>
<path d="M51.622 129.316H73.0628C75.4979 129.316 77.4717 127.351 77.4717 124.926V123.833C77.4717 121.407 75.4979 119.442 73.0628 119.442H51.622C49.1874 119.442 47.2131 121.407 47.2131 123.833V124.926C47.2131 127.351 49.1874 129.316 51.622 129.316Z" stroke="#212B36" stroke-miterlimit="10" stroke-linecap="round" stroke-linejoin="round"/>
<path d="M98.302 140.914C98.302 141.899 97.5002 142.697 96.5109 142.697C95.5223 142.697 94.7198 141.899 94.7198 140.914C94.7198 139.929 95.5223 139.13 96.5109 139.13C97.5002 139.13 98.302 139.929 98.302 140.914Z" fill="#92EECC"/>
<path d="M98.302 140.914C98.302 141.899 97.5002 142.697 96.5109 142.697C95.5223 142.697 94.7198 141.899 94.7198 140.914C94.7198 139.929 95.5223 139.13 96.5109 139.13C97.5002 139.13 98.302 139.929 98.302 140.914Z" stroke="#212B36" stroke-miterlimit="10" stroke-linecap="round" stroke-linejoin="round"/>
<path d="M94.892 52.5988H97.6089L94.8375 78.8517H92.1212C91.4973 78.8517 91.0448 78.3486 91.1106 77.7273L93.6442 53.7232C93.7095 53.1025 94.2681 52.5988 94.892 52.5988Z" fill="white"/>
<path d="M94.892 52.5988H97.6089L94.8375 78.8517H92.1212C91.4973 78.8517 91.0448 78.3486 91.1106 77.7273L93.6442 53.7232C93.7095 53.1025 94.2681 52.5988 94.892 52.5988Z" stroke="#212B36" stroke-miterlimit="10" stroke-linecap="round" stroke-linejoin="round"/>
<path d="M63.4814 100.297H146.819V91.771H63.4814V100.297Z" fill="#92EECC" stroke="#212B36" stroke-miterlimit="10" stroke-linecap="round" stroke-linejoin="round"/>
<path d="M33.8147 100.297H63.4814V91.771H33.8147V100.297Z" fill="#92EECC" stroke="#212B36" stroke-miterlimit="10" stroke-linecap="round" stroke-linejoin="round"/>
<path d="M66.9472 91.7707H149.498V86.9548H66.9472V91.7707Z" fill="#6C859B" stroke="#212B36" stroke-miterlimit="10" stroke-linecap="round" stroke-linejoin="round"/>
<path d="M31.1363 91.7707H66.9473V86.9549H31.1363V91.7707Z" fill="#4D667C" stroke="#212B36" stroke-miterlimit="10" stroke-linecap="round" stroke-linejoin="round"/>
<path d="M142.299 170.116H144.103L144.748 100.296H142.299V170.116Z" fill="#6C859B"/>
<path d="M142.299 170.116H144.103L144.748 100.296H142.299V170.116Z" stroke="#212B36" stroke-miterlimit="10" stroke-linecap="round" stroke-linejoin="round"/>
<path d="M140.496 170.116H142.299V100.296H139.851L140.496 170.116Z" fill="#4D667C"/>
<path d="M140.496 170.116H142.299V100.296H139.851L140.496 170.116Z" stroke="#212B36" stroke-miterlimit="10" stroke-linecap="round" stroke-linejoin="round"/>
<path d="M118.467 170.116H120.272L120.916 100.296H118.467V170.116Z" fill="#6C859B"/>
<path d="M118.467 170.116H120.272L120.916 100.296H118.467V170.116Z" stroke="#212B36" stroke-miterlimit="10" stroke-linecap="round" stroke-linejoin="round"/>
<path d="M116.663 170.116H118.467V100.296H116.019L116.663 170.116Z" fill="#4D667C"/>
<path d="M116.663 170.116H118.467V100.296H116.019L116.663 170.116Z" stroke="#212B36" stroke-miterlimit="10" stroke-linecap="round" stroke-linejoin="round"/>
<path d="M62.1671 170.116H63.9712L64.6159 100.296H62.1671V170.116Z" fill="#6C859B"/>
<path d="M62.1671 170.116H63.9712L64.6159 100.296H62.1671V170.116Z" stroke="#212B36" stroke-miterlimit="10" stroke-linecap="round" stroke-linejoin="round"/>
<path d="M60.3632 170.116H62.1673V100.296H59.7185L60.3632 170.116Z" fill="#4D667C"/>
<path d="M60.3632 170.116H62.1673V100.296H59.7185L60.3632 170.116Z" stroke="#212B36" stroke-miterlimit="10" stroke-linecap="round" stroke-linejoin="round"/>
<path d="M38.3349 170.116H40.139L40.7837 100.296H38.3349V170.116Z" fill="#6C859B"/>
<path d="M38.3349 170.116H40.139L40.7837 100.296H38.3349V170.116Z" stroke="#212B36" stroke-miterlimit="10" stroke-linecap="round" stroke-linejoin="round"/>
<path d="M36.5313 170.116H38.3349V100.296H35.8867L36.5313 170.116Z" fill="#4D667C"/>
<path d="M36.5313 170.116H38.3349V100.296H35.8867L36.5313 170.116Z" stroke="#212B36" stroke-miterlimit="10" stroke-linecap="round" stroke-linejoin="round"/>
<path d="M81.8187 86.9547H90.955V85.4565L81.8187 86.0985V86.9547Z" fill="white"/>
<path d="M81.8187 86.9547H90.955V85.4565L81.8187 86.0985V86.9547Z" stroke="#212B36" stroke-miterlimit="10" stroke-linecap="round" stroke-linejoin="round"/>
<path d="M100.29 86.9551H90.9555V85.4569H100.29V86.9551Z" fill="#212B36" stroke="#212B36" stroke-miterlimit="10" stroke-linecap="round" stroke-linejoin="round"/>
<path d="M127.001 86.9547H130.883C131.5 86.9547 132 86.4563 132 85.8422V84.654H125.884V85.8422C125.884 86.4563 126.384 86.9547 127.001 86.9547Z" fill="#6C859B"/>
<path d="M127.001 86.9547H130.883C131.5 86.9547 132 86.4563 132 85.8422V84.654H125.884V85.8422C125.884 86.4563 126.384 86.9547 127.001 86.9547Z" stroke="#212B36" stroke-miterlimit="10" stroke-linecap="round" stroke-linejoin="round"/>
<path d="M132 84.6634C132 83.7894 130.631 83.0801 128.942 83.0801C127.253 83.0801 125.884 83.7894 125.884 84.6634H132Z" fill="white"/>
<path d="M132 84.6634C132 83.7894 130.631 83.0801 128.942 83.0801C127.253 83.0801 125.884 83.7894 125.884 84.6634H132Z" stroke="#212B36" stroke-miterlimit="10" stroke-linecap="round" stroke-linejoin="round"/>
<path d="M125.884 84.6634C125.884 83.7894 127.253 83.0801 128.942 83.0801V84.6634H125.884Z" fill="white"/>
<path d="M125.884 84.6634C125.884 83.7894 127.253 83.0801 128.942 83.0801V84.6634H125.884Z" stroke="#212B36" stroke-miterlimit="10" stroke-linecap="round" stroke-linejoin="round"/>
<path d="M126.357 77.6435C126.699 77.6435 127.005 77.3677 127.041 77.0281L127.2 75.5211C127.235 75.1809 126.988 74.9051 126.646 74.9051C126.305 74.9051 125.999 75.1809 125.963 75.5211L125.804 77.0281C125.769 77.3677 126.016 77.6435 126.357 77.6435Z" stroke="#212B36" stroke-miterlimit="10" stroke-linecap="round" stroke-linejoin="round"/>
<path d="M124.31 77.6435C124.652 77.6435 124.957 77.3677 124.993 77.0281L125.152 75.5211C125.188 75.1809 124.941 74.9051 124.599 74.9051C124.258 74.9051 123.952 75.1809 123.916 75.5211L123.757 77.0281C123.721 77.3677 123.969 77.6435 124.31 77.6435Z" stroke="#212B36" stroke-miterlimit="10" stroke-linecap="round" stroke-linejoin="round"/>
<path d="M122.263 77.6435C122.604 77.6435 122.911 77.3677 122.946 77.0281L123.105 75.5211C123.141 75.1809 122.893 74.9051 122.552 74.9051C122.211 74.9051 121.905 75.1809 121.869 75.5211L121.71 77.0281C121.675 77.3677 121.922 77.6435 122.263 77.6435Z" stroke="#212B36" stroke-miterlimit="10" stroke-linecap="round" stroke-linejoin="round"/>
<path d="M139.715 86.9547H142.15C143.584 86.9547 144.748 85.7961 144.748 84.3676V75.4688H137.116V84.3676C137.116 85.7961 138.28 86.9547 139.715 86.9547Z" fill="#92EECC"/>
<path d="M139.715 86.9547H142.15C143.584 86.9547 144.748 85.7961 144.748 84.3676V75.4688H137.116V84.3676C137.116 85.7961 138.28 86.9547 139.715 86.9547Z" stroke="#212B36" stroke-miterlimit="10" stroke-linecap="round" stroke-linejoin="round"/>
<path d="M142.114 75.4687H143.646L144.783 68.9267C144.863 68.4672 144.508 68.0474 144.039 68.0474C143.672 68.0474 143.359 68.3102 143.296 68.6704L142.114 75.4687Z" fill="#212B36"/>
<path d="M142.114 75.4687H143.646L144.783 68.9267C144.863 68.4672 144.508 68.0474 144.039 68.0474C143.672 68.0474 143.359 68.3102 143.296 68.6704L142.114 75.4687Z" stroke="#212B36" stroke-miterlimit="10" stroke-linecap="round" stroke-linejoin="round"/>
<path d="M137.6 75.4687H139.205L138.596 69.4086C138.576 69.2072 138.406 69.0542 138.203 69.0542H137.392C137.158 69.0542 136.975 69.2556 136.999 69.4871L137.6 75.4687Z" fill="white"/>
<path d="M137.6 75.4687H139.205L138.596 69.4086C138.576 69.2072 138.406 69.0542 138.203 69.0542H137.392C137.158 69.0542 136.975 69.2556 136.999 69.4871L137.6 75.4687Z" stroke="#212B36" stroke-miterlimit="10" stroke-linecap="round" stroke-linejoin="round"/>
<path d="M140.448 75.4687H141.47L142.114 68.2783H141.093L140.448 75.4687Z" fill="#6C859B"/>
<path d="M140.448 75.4687H141.47L142.114 68.2783H141.093L140.448 75.4687Z" stroke="#212B36" stroke-miterlimit="10" stroke-linecap="round" stroke-linejoin="round"/>
<path d="M93.3873 78.8517H127.567C128.191 78.8517 128.749 78.348 128.815 77.7273L131.349 53.7232C131.415 53.1019 130.961 52.5988 130.338 52.5988H96.1581C95.5348 52.5988 94.9761 53.1019 94.9103 53.7232L92.3767 77.7273C92.3114 78.348 92.7634 78.8517 93.3873 78.8517Z" fill="#212B36"/>
<path d="M93.3873 78.8517H127.567C128.191 78.8517 128.749 78.348 128.815 77.7273L131.349 53.7232C131.415 53.1019 130.961 52.5988 130.338 52.5988H96.1581C95.5348 52.5988 94.9761 53.1019 94.9103 53.7232L92.3767 77.7273C92.3114 78.348 92.7634 78.8517 93.3873 78.8517Z" stroke="#212B36" stroke-miterlimit="10" stroke-linecap="round" stroke-linejoin="round"/>
<path d="M105.264 86.9551H122.263V84.254H105.264V86.9551Z" fill="#212B36" stroke="#212B36" stroke-miterlimit="10" stroke-linecap="round" stroke-linejoin="round"/>
<path d="M100.291 86.9551H105.264V84.254H100.291V86.9551Z" fill="white" stroke="#212B36" stroke-miterlimit="10" stroke-linecap="round" stroke-linejoin="round"/>
<path d="M113.909 72.8124C113.777 71.5646 112.802 70.5247 111.607 70.2365C111.809 70.1845 112.019 70.1491 112.243 70.1491C113.72 70.1491 115.044 71.342 115.199 72.8124C115.354 74.2835 114.282 75.4763 112.805 75.4763C112.582 75.4763 112.364 75.4403 112.151 75.3889C113.284 75.1008 114.041 74.0608 113.909 72.8124Z" fill="#92EECC"/>
<path d="M113.909 72.8124C113.777 71.5646 112.802 70.5247 111.607 70.2365C111.809 70.1845 112.019 70.1491 112.243 70.1491C113.72 70.1491 115.044 71.342 115.199 72.8124C115.354 74.2835 114.282 75.4763 112.805 75.4763C112.582 75.4763 112.364 75.4403 112.151 75.3889C113.284 75.1008 114.041 74.0608 113.909 72.8124Z" stroke="#212B36" stroke-miterlimit="10" stroke-linecap="round" stroke-linejoin="round"/>
<path d="M107.848 68.2237L109.54 84.2538H108.25L106.558 68.2237C106.517 67.8392 106.797 67.5268 107.184 67.5268H108.474C108.087 67.5268 107.807 67.8392 107.848 68.2237Z" fill="#92EECC"/>
<path d="M107.848 68.2237L109.54 84.2538H108.25L106.558 68.2237C106.517 67.8392 106.797 67.5268 107.184 67.5268H108.474C108.087 67.5268 107.807 67.8392 107.848 68.2237Z" stroke="#212B36" stroke-miterlimit="10" stroke-linecap="round" stroke-linejoin="round"/>
<path d="M112.243 70.1493C113.72 70.1493 115.044 71.3422 115.199 72.8126C115.354 74.2836 114.282 75.4765 112.805 75.4765C111.328 75.4765 110.005 74.2836 109.849 72.8126C109.694 71.3422 110.766 70.1493 112.243 70.1493ZM107.848 68.2236L109.54 84.2537H117.924L116.232 68.2236C116.191 67.8391 115.845 67.5273 115.459 67.5273H108.474C108.087 67.5273 107.807 67.8391 107.848 68.2236Z" fill="#92EECC"/>
<path d="M112.243 70.1493C113.72 70.1493 115.044 71.3422 115.199 72.8126C115.354 74.2836 114.282 75.4765 112.805 75.4765C111.328 75.4765 110.005 74.2836 109.849 72.8126C109.694 71.3422 110.766 70.1493 112.243 70.1493ZM107.848 68.2236L109.54 84.2537H117.924L116.232 68.2236C116.191 67.8391 115.845 67.5273 115.459 67.5273H108.474C108.087 67.5273 107.807 67.8391 107.848 68.2236Z" stroke="#212B36" stroke-miterlimit="10" stroke-linecap="round" stroke-linejoin="round"/>
<path d="M234.308 148.665L227.956 151.775L231.676 157.574C231.676 157.574 230.29 164.562 228.628 166.543C228.06 167.221 225.786 168.263 226.251 169.165C226.574 169.793 228.317 170.275 229.501 170.066C230.203 169.942 230.843 169.595 231.336 169.08L240.725 159.213C242.08 157.793 241.892 155.513 240.32 154.335C239.403 153.648 238.196 153.409 237.306 152.841C236.22 152.149 234.308 148.665 234.308 148.665Z" fill="white"/>
<path d="M234.308 148.665L227.956 151.775L231.676 157.574C231.676 157.574 230.29 164.562 228.628 166.543C228.06 167.221 225.786 168.263 226.251 169.165C226.574 169.793 228.317 170.275 229.501 170.066C230.203 169.942 230.843 169.595 231.336 169.08L240.725 159.213C242.08 157.793 241.892 155.513 240.32 154.335C239.403 153.648 238.196 153.409 237.306 152.841C236.22 152.149 234.308 148.665 234.308 148.665Z" stroke="#212B36" stroke-miterlimit="10"/>
<path d="M229.5 170.066C228.317 170.275 226.574 169.793 226.251 169.165C225.786 168.263 228.06 167.221 228.628 166.543C230.29 164.562 231.676 157.574 231.676 157.574L231.611 157.473C232.93 157.479 234.453 158.136 235.181 157.618C236.358 156.782 236.245 155.722 236.413 154.371C236.487 153.771 236.805 153.185 237.136 152.712C237.194 152.76 237.251 152.806 237.305 152.841C238.196 153.409 239.402 153.648 240.319 154.335C241.893 155.512 242.081 157.793 240.725 159.213L231.336 169.08C230.844 169.595 230.204 169.942 229.5 170.066Z" fill="#FCAB4C"/>
<path d="M229.5 170.066C228.317 170.275 226.574 169.793 226.251 169.165C225.786 168.263 228.06 167.221 228.628 166.543C230.29 164.562 231.676 157.574 231.676 157.574L231.611 157.473C232.93 157.479 234.453 158.136 235.181 157.618C236.358 156.782 236.245 155.722 236.413 154.371C236.487 153.771 236.805 153.185 237.136 152.712C237.194 152.76 237.251 152.806 237.305 152.841C238.196 153.409 239.402 153.648 240.319 154.335C241.893 155.512 242.081 157.793 240.725 159.213L231.336 169.08C230.844 169.595 230.204 169.942 229.5 170.066Z" stroke="#212B36" stroke-miterlimit="10"/>
<path d="M219.338 91.6401L218 125.763C224.875 131.085 226.462 133.827 236.642 149.017L228.745 154.37L207.049 129.316L201.025 101.51L203.377 93.1453L210.838 90.0982L219.338 91.6401Z" fill="#212B36"/>
<path d="M188.424 153.326L187.878 162.251C187.878 162.251 181.977 165.505 179.59 166.378C178.676 166.712 175.664 167.062 175.11 167.858C175.04 167.96 175.02 168.121 175.033 168.313C175.1 169.344 176.021 170.116 177.058 170.116H193.21C194.616 170.116 195.755 168.996 195.788 167.597C195.82 166.22 195.206 164.578 195.184 162.957C195.17 161.855 195.846 158.753 195.846 158.753L188.424 153.326Z" fill="white"/>
<path d="M188.424 153.326L187.878 162.251C187.878 162.251 181.977 165.505 179.59 166.378C178.676 166.712 175.664 167.062 175.11 167.858C175.04 167.96 175.02 168.121 175.033 168.313C175.1 169.344 176.021 170.116 177.058 170.116H193.21C194.616 170.116 195.755 168.996 195.788 167.597C195.82 166.22 195.206 164.578 195.184 162.957C195.17 161.855 195.846 158.753 195.846 158.753L188.424 153.326Z" stroke="#212B36" stroke-miterlimit="10"/>
<path d="M177.058 170.115C176.021 170.115 175.1 169.344 175.033 168.312C175.02 168.121 175.04 167.96 175.11 167.858C175.664 167.062 178.677 166.712 179.591 166.378C181.977 165.504 187.878 162.252 187.878 162.252L187.881 162.239C188.506 162.471 189.112 162.806 189.306 163.267C189.753 164.335 192.162 165.267 193.585 163.873C194.118 163.352 194.687 163.136 195.191 163.07C195.238 164.654 195.819 166.253 195.788 167.596C195.755 168.996 194.616 170.115 193.21 170.115H177.058Z" fill="#FCAB4C"/>
<path d="M177.058 170.115C176.021 170.115 175.1 169.344 175.033 168.312C175.02 168.121 175.04 167.96 175.11 167.858C175.664 167.062 178.677 166.712 179.591 166.378C181.977 165.504 187.878 162.252 187.878 162.252L187.881 162.239C188.506 162.471 189.112 162.806 189.306 163.267C189.753 164.335 192.162 165.267 193.585 163.873C194.118 163.352 194.687 163.136 195.191 163.07C195.238 164.654 195.819 166.253 195.788 167.596C195.755 168.996 194.616 170.115 193.21 170.115H177.058Z" stroke="#212B36" stroke-miterlimit="10"/>
<path d="M220.563 85.8043L200.048 78.8519L190.502 122.92L187.144 157.769L196.334 160.415L199.374 147.181C202.888 133.621 201.575 126.365 201.575 126.365C201.575 126.365 220.73 95.8411 220.563 85.8043Z" fill="#212B36"/>
<path d="M215.211 32.0151L213.315 24.2625L215.211 17.9267V10.7221L209.466 7.56509L204.452 6.82456L202.453 8.11606L201.667 10.1936C201.667 10.1936 199.283 15.636 199.704 16.6541C200.125 17.6727 200.446 18.6412 200.446 18.6412C200.446 18.6412 198.85 21.2573 198.646 22.3687C198.404 23.6944 200.145 22.6746 200.446 24.2625C200.749 25.8599 200.668 29.4345 202.554 29.5744C204.442 29.7138 205.46 29.7268 205.684 31.3874C205.907 33.048 206.433 37.5662 206.433 37.5662L215.211 32.0151Z" fill="white"/>
<path d="M215.211 32.0151L213.315 24.2625L215.211 17.9267V10.7221L209.466 7.56509L204.452 6.82456L202.453 8.11606L201.667 10.1936C201.667 10.1936 199.283 15.636 199.704 16.6541C200.125 17.6727 200.446 18.6412 200.446 18.6412C200.446 18.6412 198.85 21.2573 198.646 22.3687C198.404 23.6944 200.145 22.6746 200.446 24.2625C200.749 25.8599 200.668 29.4345 202.554 29.5744C204.442 29.7138 205.46 29.7268 205.684 31.3874C205.907 33.048 206.433 37.5662 206.433 37.5662L215.211 32.0151Z" stroke="#212B36" stroke-miterlimit="10" stroke-linecap="round" stroke-linejoin="round"/>
<path d="M200.145 2.14325C200.145 2.14325 203.074 2.43675 203.408 4.4995L204.519 0.999971C204.519 0.999971 206.371 2.12377 206.038 3.83573L209.778 2.52415C209.778 2.52415 210.746 4.15817 209.31 5.39829C209.31 5.39829 218.169 3.07158 217.881 11.2175C217.881 11.2175 222.505 14.916 213.742 26.0405L212.153 23.8378L212.08 23.6748C212.898 23.343 213.569 22.4678 213.741 21.3528C213.979 19.8109 213.182 18.409 211.961 18.2218C211.235 18.1108 210.528 18.4598 210.018 19.0787L208.616 15.9488L206.529 13.6794L207.019 12.3123C207.019 12.3123 200.803 12.7245 201.188 7.72738C201.573 2.72966 200.145 2.14325 200.145 2.14325Z" fill="#212B36"/>
<path d="M200.145 2.14325C200.145 2.14325 203.074 2.43675 203.408 4.4995L204.519 0.999971C204.519 0.999971 206.371 2.12377 206.038 3.83573L209.778 2.52415C209.778 2.52415 210.746 4.15817 209.31 5.39829C209.31 5.39829 218.169 3.07158 217.881 11.2175C217.881 11.2175 222.505 14.916 213.742 26.0405L212.153 23.8378L212.08 23.6748C212.898 23.343 213.569 22.4678 213.741 21.3528C213.979 19.8109 213.182 18.409 211.961 18.2218C211.235 18.1108 210.528 18.4598 210.018 19.0787L208.616 15.9488L206.529 13.6794L207.019 12.3123C207.019 12.3123 200.803 12.7245 201.188 7.72737C201.573 2.72966 200.145 2.14325 200.145 2.14325Z" stroke="#212B36" stroke-miterlimit="10" stroke-linecap="round" stroke-linejoin="round"/>
<path d="M202.023 18.3304C202.023 18.7249 202.215 19.0449 202.454 19.0449C202.691 19.0449 202.883 18.7249 202.883 18.3304C202.883 17.9359 202.691 17.6158 202.454 17.6158C202.215 17.6158 202.023 17.9359 202.023 18.3304Z" fill="#212B36"/>
<path d="M204.032 16.7964C204.032 16.7964 203.008 14.8157 201.161 16.0104" stroke="#212B36" stroke-miterlimit="10" stroke-linecap="round" stroke-linejoin="round"/>
<path d="M214.802 10.6619C214.802 10.6619 212.315 7.31942 207.963 8.62746C203.61 9.9355 206.408 4.70393 206.408 4.70393" stroke="#6C859B" stroke-linecap="round" stroke-linejoin="round"/>
<path d="M203.193 5.01887C203.193 5.01887 200.504 10.5835 206.356 10.8457" stroke="#6C859B" stroke-linecap="round" stroke-linejoin="round"/>
<path d="M202.269 24.792C202.269 24.792 203.641 24.9425 204.601 23.618" stroke="#212B36" stroke-miterlimit="10" stroke-linecap="round" stroke-linejoin="round"/>
<path d="M203.103 29.5743C203.103 29.5743 206.198 29.4237 207.416 28.232L205.684 31.3872C205.684 31.3872 205.725 29.1178 203.103 29.5743Z" fill="#212B36"/>
<path d="M203.103 29.5743C203.103 29.5743 206.198 29.4237 207.416 28.232L205.684 31.3872C205.684 31.3872 205.725 29.1178 203.103 29.5743Z" stroke="#212B36" stroke-miterlimit="10" stroke-linecap="round" stroke-linejoin="round"/>
<path d="M192.076 152.713L191.586 156.428" stroke="#6C859B" stroke-linecap="round" stroke-linejoin="round"/>
<path d="M192.437 149.973L192.748 147.619L194.695 132.865C195.422 127.349 196.715 121.922 198.551 116.668L208.934 86.9546L209.934 83.6665" stroke="#6C859B" stroke-linecap="round" stroke-linejoin="round"/>
<path d="M204.896 82.7493C204.896 82.7493 204.125 89.1555 206.689 92.1011" stroke="#6C859B" stroke-linecap="round" stroke-linejoin="round"/>
<path d="M206.813 117.598C211.151 110.072 216.985 99.2653 219.421 91.6668" stroke="#6C859B" stroke-linecap="round" stroke-linejoin="round"/>
<path d="M205.26 120.266C205.417 120.001 205.576 119.729 205.739 119.45" stroke="#6C859B" stroke-linecap="round" stroke-linejoin="round"/>
<path d="M178.565 73.6423C180.439 72.388 183.827 74.0976 183.85 74.1094L183.864 74.103L184.854 73.4126L185.236 73.4061L188.424 76.8265L187.157 77.6503C187.157 77.6503 183.594 81.2266 181.242 81.1729C178.89 81.1197 175.546 77.7985 175.546 77.7985L176.111 77.1484C175.684 77.1643 175.317 77.0669 175.045 76.8773C174.266 76.3334 176.684 74.9014 178.565 73.6423Z" fill="white"/>
<path d="M178.565 73.6423C180.439 72.388 183.827 74.0976 183.85 74.1094L183.864 74.1029L184.854 73.4126L185.236 73.4061L188.424 76.8265L187.157 77.6503C187.157 77.6503 183.594 81.2266 181.242 81.1729C178.89 81.1197 175.546 77.7985 175.546 77.7985L176.111 77.1484C175.684 77.1643 175.317 77.0669 175.045 76.8773C174.266 76.3334 176.684 74.9014 178.565 73.6423Z" stroke="#212B36" stroke-miterlimit="10" stroke-linecap="round" stroke-linejoin="round"/>
<path d="M176.4 78.294L177.406 77.29L176.244 76.4934L174.704 77.714C174.704 77.714 174.442 78.5851 175.547 78.7628C175.547 78.7628 175.622 79.7803 177.042 79.9114C177.042 79.9114 177.714 80.9337 178.988 80.5988C178.988 80.5988 179.114 81.7704 180.43 81.2827L180.906 80.6827L179.716 80L179.413 80.0715L179.254 79.5742L178.246 78.9471L177.854 79.0935L177.942 78.513L177.112 78.0896L176.4 78.294Z" fill="white"/>
<path d="M176.4 78.294L177.406 77.29L176.244 76.4934L174.704 77.714C174.704 77.714 174.442 78.5851 175.547 78.7628C175.547 78.7628 175.622 79.7803 177.042 79.9114C177.042 79.9114 177.714 80.9337 178.988 80.5988C178.988 80.5988 179.114 81.7704 180.43 81.2827L180.906 80.6827L179.716 80L179.413 80.0715L179.254 79.5742L178.246 78.9471L177.854 79.0935L177.942 78.513L177.112 78.0896L176.4 78.294Z" stroke="#212B36" stroke-miterlimit="10" stroke-linecap="round" stroke-linejoin="round"/>
<path d="M175.397 91.4923H168.027C167.384 91.4923 166.857 91.9865 166.81 92.6243C166.604 95.4093 167.188 102.365 178.162 102.365C189.426 102.365 189.102 93.8786 188.626 91.0801C188.529 90.5137 188.041 90.0986 187.465 90.0986H178.065C177.593 90.0986 177.143 90.3 176.832 90.6537L176.548 90.9738C176.257 91.3033 175.838 91.4923 175.397 91.4923Z" fill="#FCAB4C"/>
<path d="M175.397 91.4923H168.027C167.384 91.4923 166.857 91.9865 166.81 92.6243C166.604 95.4093 167.188 102.365 178.162 102.365C189.426 102.365 189.102 93.8786 188.626 91.0801C188.529 90.5137 188.041 90.0986 187.465 90.0986H178.065C177.593 90.0986 177.143 90.3 176.832 90.6537L176.548 90.9738C176.257 91.3033 175.838 91.4923 175.397 91.4923Z" stroke="#212B36" stroke-miterlimit="10" stroke-linecap="round" stroke-linejoin="round"/>
<path d="M177.434 93.5551C177.434 93.3091 177.234 93.1096 176.986 93.1096C176.739 93.1096 176.539 93.3091 176.539 93.5551C176.539 93.8018 176.739 94.0012 176.986 94.0012C177.234 94.0012 177.434 93.8018 177.434 93.5551Z" fill="#212B36"/>
<path d="M181.578 93.5551C181.578 93.3091 181.378 93.1096 181.13 93.1096C180.883 93.1096 180.683 93.3091 180.683 93.5551C180.683 93.8018 180.883 94.0012 181.13 94.0012C181.378 94.0012 181.578 93.8018 181.578 93.5551Z" fill="#212B36"/>
<path d="M181.606 90.0984C180.345 87.6725 178.948 85.5507 178.273 85.0623C177.59 85.7036 176.276 88.3976 175.123 91.4921H172.977C176.031 82.8696 177.737 82.96 178.308 82.9842C180.069 83.0769 182.273 86.8351 183.862 90.0984H181.606Z" fill="#212B36"/>
<path d="M177.791 84.9904C177.871 84.9904 177.952 84.9809 178.033 84.9608C178.573 84.8274 178.904 84.2835 178.769 83.7455C177.686 79.3802 177.573 75.4981 178.198 75.0705C178.709 74.8496 178.94 74.2603 178.718 73.7524C178.497 73.2428 177.9 73.0113 177.39 73.2328C174.692 74.3997 176.088 81.3107 176.813 84.2274C176.926 84.6845 177.337 84.9904 177.791 84.9904Z" fill="#212B36"/>
<path d="M178.461 82.9912L176.933 83.3172C176.587 83.391 176.457 83.8138 176.702 84.0677L177.771 85.178C178.008 85.4236 178.423 85.328 178.526 85.0026L178.986 83.5676C179.09 83.2386 178.799 82.9191 178.461 82.9912Z" fill="white"/>
<path d="M178.461 82.9912L176.933 83.3172C176.587 83.391 176.457 83.8138 176.702 84.0677L177.771 85.178C178.008 85.4236 178.423 85.328 178.526 85.0026L178.986 83.5676C179.09 83.2386 178.799 82.9191 178.461 82.9912Z" stroke="#212B36" stroke-miterlimit="10"/>
<path d="M178.565 73.6421C176.684 74.9011 174.266 76.3332 175.045 76.877C175.824 77.4203 177.351 77.2662 179.003 75.5867C179.003 75.5867 179.786 77.617 182.425 76.9538" fill="white"/>
<path d="M178.565 73.6421C176.684 74.9011 174.266 76.3332 175.045 76.877C175.824 77.4203 177.351 77.2662 179.003 75.5867C179.003 75.5867 179.786 77.617 182.425 76.9538" stroke="#212B36" stroke-miterlimit="10" stroke-linecap="round" stroke-linejoin="round"/>
<path d="M183.862 77.1781C183.862 77.1781 181.471 78.1561 181.13 78.9474L183.862 77.1781Z" fill="white"/>
<path d="M183.862 77.1781C183.862 77.1781 181.471 78.1561 181.13 78.9474" stroke="#212B36" stroke-miterlimit="10" stroke-linecap="round" stroke-linejoin="round"/>
<path d="M206.468 34.9697C206.468 34.9697 202.889 37.3531 201.425 42.9567C199.961 48.5609 199.312 59.5685 199.312 59.5685L185.236 73.4054L189.747 76.8937L204.624 67.5053L209.183 45.2149L206.468 34.9697Z" fill="#FCAB4C"/>
<path d="M206.468 34.9697C206.468 34.9697 202.889 37.3531 201.425 42.9567C199.961 48.5609 199.312 59.5685 199.312 59.5685L185.236 73.4054L189.747 76.8937L204.624 67.5053L209.183 45.2149L206.468 34.9697Z" stroke="#212B36" stroke-miterlimit="10" stroke-linecap="round" stroke-linejoin="round"/>
<path d="M192.748 77.7126L189.339 79.4364L183.096 72.5277L186.83 69.8939L192.748 77.7126Z" fill="#FCAB4C"/>
<path d="M192.748 77.7126L189.339 79.4364L183.096 72.5277L186.83 69.8939L192.748 77.7126Z" stroke="#212B36" stroke-miterlimit="10" stroke-linecap="round" stroke-linejoin="round"/>
<path d="M224.796 82.5815C224.796 82.5815 208.751 85.1958 198.775 81.2126C198.775 81.2126 198.701 79.8839 199.188 65.8793C199.529 56.0988 199.647 44.5213 203.094 38.6118C205.716 34.119 216.061 30.3118 216.061 30.3118C216.061 30.3118 226.462 34.9924 226.462 42.018C226.462 49.0437 223.873 71.2313 223.873 71.2313L224.796 82.5815Z" fill="#FCAB4C"/>
<path d="M224.796 82.5815C224.796 82.5815 208.751 85.1958 198.775 81.2126C198.775 81.2126 198.701 79.8839 199.188 65.8793C199.529 56.0988 199.647 44.5213 203.094 38.6118C205.716 34.119 216.061 30.3118 216.061 30.3118C216.061 30.3118 226.462 34.9924 226.462 42.018C226.462 49.0437 223.873 71.2313 223.873 71.2313L224.796 82.5815Z" stroke="#212B36" stroke-miterlimit="10" stroke-linecap="round" stroke-linejoin="round"/>
<path d="M218 69.8445L216.615 83.6979" stroke="#212B36" stroke-miterlimit="10" stroke-linecap="round" stroke-linejoin="round"/>
<path d="M220.562 52.2918L218.187 67.9735" stroke="#212B36" stroke-miterlimit="10" stroke-linecap="round" stroke-linejoin="round"/>
<path d="M202.023 45.3448C202.023 45.93 202.252 46.4042 202.534 46.4042C202.816 46.4042 203.045 45.93 203.045 45.3448C203.045 44.7595 202.816 44.2853 202.534 44.2853C202.252 44.2853 202.023 44.7595 202.023 45.3448Z" fill="#212B36"/>
<path d="M201.059 56.8458C201.059 57.4305 201.288 57.9053 201.57 57.9053C201.853 57.9053 202.081 57.4305 202.081 56.8458C202.081 56.2606 201.853 55.7864 201.57 55.7864C201.288 55.7864 201.059 56.2606 201.059 56.8458Z" fill="#212B36"/>
<path d="M200.45 69.054C200.45 69.6392 200.678 70.1134 200.96 70.1134C201.243 70.1134 201.471 69.6392 201.471 69.054C201.471 68.4693 201.243 67.9946 200.96 67.9946C200.678 67.9946 200.45 68.4693 200.45 69.054Z" fill="#212B36"/>
<path d="M215.194 29.0767L205.463 35.5543L205.844 32.637L203.095 38.6115L205.058 36.4371L206.604 39.6597L216.774 30.9581L215.194 29.0767Z" fill="#FCAB4C"/>
<path d="M215.194 29.0767L205.463 35.5543L205.844 32.637L203.095 38.6115L205.058 36.4371L206.604 39.6597L216.774 30.9581L215.194 29.0767Z" stroke="#212B36" stroke-miterlimit="10" stroke-linecap="round" stroke-linejoin="round"/>
<path d="M212.955 76.3879C213.002 76.3879 213.05 76.3844 213.099 76.3779C213.65 76.2999 214.032 75.7915 213.954 75.2429C213.94 75.1443 212.539 65.2569 212.357 55.1038C212.128 42.2608 213.947 34.5289 217.477 33.3312C223.986 31.1244 235.223 55.5538 240.78 71.4705C240.964 71.9943 241.536 72.2707 242.063 72.0894C242.589 71.9063 242.867 71.3347 242.684 70.8115C242.647 70.7058 238.933 60.1127 234.053 50.0683C227.184 35.9261 221.547 29.8305 216.827 31.4315C212.204 32.9982 210.083 40.759 210.343 55.1563C210.527 65.4323 211.945 75.4259 211.958 75.5263C212.03 76.0265 212.461 76.3879 212.955 76.3879Z" fill="#212B36"/>
<path d="M219.694 89.9826C225.913 90.1131 232.916 89.0802 238.831 87.161C241.446 86.3567 243.19 83.3567 242.793 80.6881C242.111 76.0984 241.77 73.8042 241.086 69.2146C240.69 66.5453 238.302 65.2178 235.687 66.0221C229.772 67.9413 222.769 68.9736 216.55 68.8437C213.813 68.8295 211.914 70.7883 212.311 73.4582C212.994 78.0472 213.335 80.342 214.018 84.9311C214.415 87.6003 216.957 89.9684 219.694 89.9826Z" fill="#212B36"/>
<path d="M216.55 68.8437C222.769 68.9736 229.773 67.9414 235.687 66.0221C238.302 65.2178 240.69 66.5453 241.087 69.2146C241.368 71.1025 241.508 72.0462 241.789 73.9341C242.092 75.975 240.758 78.2657 238.769 78.9171C231.203 80.9066 225.174 81.796 217.354 82.0747C215.26 82.0251 213.317 80.2181 213.013 78.1778C212.732 76.2892 212.592 75.3455 212.311 73.4576C211.915 70.7884 213.814 68.8295 216.55 68.8437Z" fill="#212B36"/>
<path d="M241.789 73.9343C242.092 75.9752 240.758 78.2659 238.769 78.9172C231.203 80.9067 225.174 81.7961 217.354 82.0748C215.26 82.0252 213.316 80.2182 213.013 78.1779" stroke="#6C859B" stroke-linecap="round" stroke-linejoin="round"/>
<path d="M237.241 84.709C237.557 84.6186 237.715 84.5726 238.029 84.4775C238.589 84.3092 238.973 83.7021 238.887 83.1311C238.575 81.0293 238.418 79.9782 238.106 77.8765C236.985 78.2337 236.421 78.3991 235.287 78.7038C235.599 80.8061 235.756 81.8567 236.068 83.9584C236.153 84.5289 236.68 84.8696 237.241 84.709Z" fill="#8092A3"/>
<path d="M237.241 84.709C237.557 84.6186 237.715 84.5726 238.029 84.4775C238.589 84.3092 238.973 83.7021 238.887 83.1311C238.575 81.0293 238.418 79.9782 238.106 77.8765C236.985 78.2337 236.421 78.3991 235.287 78.7038C235.599 80.8061 235.756 81.8567 236.068 83.9584C236.153 84.5289 236.68 84.8696 237.241 84.709Z" stroke="#212B36" stroke-miterlimit="10" stroke-linecap="round" stroke-linejoin="round"/>
<path d="M218.211 87.168C218.54 87.1751 218.704 87.178 219.033 87.1804C219.618 87.1857 220.024 86.7192 219.939 86.1481C219.626 84.0464 219.47 82.9958 219.157 80.8935C217.981 80.9024 217.393 80.8929 216.216 80.848C216.529 82.9492 216.685 84.0009 216.997 86.1021C217.082 86.6731 217.626 87.1556 218.211 87.168Z" fill="#8092A3"/>
<path d="M218.211 87.168C218.54 87.1751 218.704 87.178 219.033 87.1804C219.618 87.1857 220.024 86.7192 219.939 86.1481C219.626 84.0464 219.47 82.9958 219.157 80.8935C217.981 80.9024 217.393 80.8929 216.216 80.848C216.529 82.9492 216.685 84.0009 216.997 86.1021C217.082 86.6731 217.626 87.1556 218.211 87.168Z" stroke="#212B36" stroke-miterlimit="10" stroke-linecap="round" stroke-linejoin="round"/>
<path d="M216.447 72.9897C222.849 73.1987 230.106 72.1771 236.2 70.2082C236.605 70.0848 236.882 69.6449 236.821 69.2315C236.759 68.8187 236.382 68.5878 235.977 68.7118C229.884 70.6807 222.626 71.7023 216.224 71.4932C215.8 71.4862 215.506 71.811 215.568 72.2243C215.629 72.6371 216.022 72.9826 216.447 72.9897Z" fill="#4D667C"/>
<path d="M216.447 72.9897C222.849 73.1987 230.106 72.1771 236.2 70.2082C236.605 70.0848 236.882 69.6449 236.821 69.2315C236.759 68.8187 236.382 68.5878 235.977 68.7118C229.884 70.6807 222.626 71.7023 216.224 71.4932C215.8 71.4862 215.506 71.811 215.568 72.2243C215.629 72.6371 216.022 72.9826 216.447 72.9897Z" stroke="#212B36" stroke-miterlimit="10" stroke-linecap="round" stroke-linejoin="round"/>
<path d="M236.863 82.1595C237.178 82.0698 237.335 82.0231 237.649 81.9286C238.206 81.7615 238.594 81.155 238.508 80.5816L237.838 76.0717C237.78 75.6825 237.386 75.4363 237.009 75.5526C236.469 75.7203 236.029 75.8479 235.461 76.0044C235.147 76.0906 234.944 76.3971 234.992 76.7177L235.689 81.409C235.774 81.9824 236.304 82.3196 236.863 82.1595Z" fill="#4D667C"/>
<path d="M236.863 82.1595C237.178 82.0698 237.335 82.0231 237.649 81.9286C238.206 81.7615 238.594 81.155 238.508 80.5816L237.838 76.0717C237.78 75.6825 237.386 75.4363 237.009 75.5526C236.469 75.7203 236.029 75.8479 235.461 76.0044C235.147 76.0906 234.944 76.3971 234.992 76.7177L235.689 81.409C235.774 81.9824 236.304 82.3196 236.863 82.1595Z" stroke="#212B36" stroke-miterlimit="10" stroke-linecap="round" stroke-linejoin="round"/>
<path d="M217.833 84.6187C218.161 84.6263 218.326 84.6287 218.655 84.6311C219.237 84.6364 219.645 84.1722 219.559 83.5988L218.864 78.9229C218.814 78.5916 218.525 78.3466 218.189 78.3471C217.626 78.3483 217.182 78.3424 216.648 78.3271C216.226 78.3141 215.893 78.6843 215.956 79.1001L216.618 83.5521C216.704 84.1261 217.252 84.6063 217.833 84.6187Z" fill="#4D667C"/>
<path d="M217.833 84.6187C218.161 84.6263 218.326 84.6287 218.655 84.6311C219.237 84.6364 219.645 84.1722 219.559 83.5988L218.864 78.9229C218.814 78.5916 218.525 78.3466 218.189 78.3471C217.626 78.3483 217.182 78.3424 216.648 78.3271C216.226 78.3141 215.893 78.6843 215.956 79.1001L216.618 83.5521C216.704 84.1261 217.252 84.6063 217.833 84.6187Z" stroke="#212B36" stroke-miterlimit="10" stroke-linecap="round" stroke-linejoin="round"/>
<path d="M230.925 83.7452L231.153 86.5987L229.351 90.4691C229.351 90.4691 228.268 95.4869 229.351 95.6959H230.713C230.713 95.6959 230.764 98.038 233.044 96.9502C233.044 96.9502 234.518 97.4067 235.001 95.9658C235.001 95.9658 236.772 95.8825 236.911 94.5763C236.911 94.5763 238.651 93.5629 238.05 90.9285C237.448 88.2935 236.689 86.2444 236.689 86.2444L236.288 82.7319L230.925 83.7452Z" fill="white"/>
<path d="M230.925 83.7452L231.153 86.5987L229.351 90.4691C229.351 90.4691 228.268 95.4869 229.351 95.6959H230.713C230.713 95.6959 230.764 98.038 233.044 96.9502C233.044 96.9502 234.518 97.4067 235.001 95.9658C235.001 95.9658 236.772 95.8825 236.911 94.5763C236.911 94.5763 238.651 93.5629 238.05 90.9285C237.448 88.2935 236.689 86.2444 236.689 86.2444L236.288 82.7319L230.925 83.7452Z" stroke="#212B36" stroke-miterlimit="10" stroke-linecap="round" stroke-linejoin="round"/>
<path d="M215.861 46.4394L226.374 62.4772L226.645 65.1784C226.872 67.4466 227.167 69.7072 227.53 71.9577L229.636 85.0393L237.061 84.5935L235.804 59.7495C235.804 59.7495 233.522 52.7511 230.471 47.0949C224.778 36.5456 219.438 33.0785 219.438 33.0785C219.438 33.0785 212.362 32.6474 215.861 46.4394Z" fill="#FCAB4C"/>
<path d="M215.861 46.4394L226.374 62.4772L226.645 65.1784C226.872 67.4466 227.167 69.7072 227.53 71.9577L229.636 85.0393L237.061 84.5935L235.804 59.7495C235.804 59.7495 233.522 52.7511 230.471 47.0949C224.778 36.5456 219.438 33.0785 219.438 33.0785" stroke="#212B36" stroke-miterlimit="10" stroke-linecap="round" stroke-linejoin="round"/>
<path d="M231.157 63.1848C231.157 63.1848 228.746 62.0433 228.617 61.5112C228.438 60.7813 230.943 59.0593 230.943 59.0593" stroke="#212B36" stroke-miterlimit="10" stroke-linecap="round" stroke-linejoin="round"/>
<path d="M217.207 32.7426C217.207 32.7426 221.927 34.0512 223.956 40.6139" stroke="#212B36" stroke-miterlimit="10" stroke-linecap="round" stroke-linejoin="round"/>
<path d="M238.288 81.1725V84.7948L228.661 85.6174L228.198 81.4382L238.288 81.1725Z" fill="#FCAB4C"/>
<path d="M238.288 81.1725V84.7948L228.661 85.6174L228.198 81.4382L238.288 81.1725Z" stroke="#212B36" stroke-miterlimit="10" stroke-linecap="round" stroke-linejoin="round"/>
<rect x="16.9026" y="170.115" width="257.097" height="0.885087" rx="0.442543" fill="white"/>
</svg>
