<svg width="632" height="296" viewBox="0 0 632 296" fill="none" xmlns="http://www.w3.org/2000/svg">
<path d="M3.45881 3.72727V11H2.35795V4.82812H2.31534L0.575284 5.96449V4.91335L2.38991 3.72727H3.45881ZM7.8581 11.1207C7.29702 11.1184 6.81761 10.9704 6.41989 10.6768C6.02216 10.3833 5.71795 9.95597 5.50724 9.39489C5.29654 8.83381 5.19119 8.15791 5.19119 7.36719C5.19119 6.57884 5.29654 5.9053 5.50724 5.34659C5.72031 4.78788 6.02571 4.36174 6.42344 4.06818C6.82353 3.77462 7.30175 3.62784 7.8581 3.62784C8.41444 3.62784 8.89148 3.7758 9.2892 4.07173C9.68693 4.36529 9.99115 4.79143 10.2018 5.35014C10.4149 5.90649 10.5214 6.57884 10.5214 7.36719C10.5214 8.16027 10.4161 8.83736 10.2054 9.39844C9.9947 9.95715 9.69048 10.3845 9.29276 10.6804C8.89503 10.974 8.41681 11.1207 7.8581 11.1207ZM7.8581 10.1726C8.35052 10.1726 8.73523 9.93229 9.01222 9.4517C9.29157 8.97112 9.43125 8.27628 9.43125 7.36719C9.43125 6.76349 9.36733 6.25331 9.23949 5.83665C9.11402 5.41761 8.93291 5.10038 8.69617 4.88494C8.46179 4.66714 8.18243 4.55824 7.8581 4.55824C7.36804 4.55824 6.98333 4.79972 6.70398 5.28267C6.42462 5.76562 6.28376 6.46046 6.28139 7.36719C6.28139 7.97325 6.34413 8.4858 6.4696 8.90483C6.59744 9.3215 6.77855 9.63755 7.01293 9.85298C7.2473 10.0661 7.52902 10.1726 7.8581 10.1726ZM14.2132 11.1207C13.6521 11.1184 13.1727 10.9704 12.775 10.6768C12.3772 10.3833 12.073 9.95597 11.8623 9.39489C11.6516 8.83381 11.5463 8.15791 11.5463 7.36719C11.5463 6.57884 11.6516 5.9053 11.8623 5.34659C12.0754 4.78788 12.3808 4.36174 12.7785 4.06818C13.1786 3.77462 13.6568 3.62784 14.2132 3.62784C14.7695 3.62784 15.2466 3.7758 15.6443 4.07173C16.042 4.36529 16.3462 4.79143 16.5569 5.35014C16.77 5.90649 16.8765 6.57884 16.8765 7.36719C16.8765 8.16027 16.7712 8.83736 16.5605 9.39844C16.3498 9.95715 16.0456 10.3845 15.6478 10.6804C15.2501 10.974 14.7719 11.1207 14.2132 11.1207ZM14.2132 10.1726C14.7056 10.1726 15.0903 9.93229 15.3673 9.4517C15.6467 8.97112 15.7863 8.27628 15.7863 7.36719C15.7863 6.76349 15.7224 6.25331 15.5946 5.83665C15.4691 5.41761 15.288 5.10038 15.0512 4.88494C14.8169 4.66714 14.5375 4.55824 14.2132 4.55824C13.7231 4.55824 13.3384 4.79972 13.0591 5.28267C12.7797 5.76562 12.6388 6.46046 12.6365 7.36719C12.6365 7.97325 12.6992 8.4858 12.8247 8.90483C12.9525 9.3215 13.1336 9.63755 13.368 9.85298C13.6024 10.0661 13.8841 10.1726 14.2132 10.1726Z" fill="#99A5B0"/>
<line x1="26" y1="6.5" x2="632" y2="6.5" stroke="#C7D3E1" stroke-dasharray="4 4"/>
<path d="M3.15696 61.0994C2.64796 61.0994 2.19815 61.0118 1.80753 60.8366C1.41927 60.6615 1.11506 60.42 0.894886 60.1122C0.674716 59.8045 0.565814 59.4541 0.568182 59.0611C0.565814 58.7533 0.628551 58.4704 0.756392 58.2124C0.8866 57.9519 1.06297 57.7353 1.28551 57.5625C1.50805 57.3873 1.75663 57.276 2.03125 57.2287V57.1861C1.66903 57.0985 1.37902 56.9044 1.16122 56.6037C0.943419 56.303 0.835701 55.9574 0.838068 55.5668C0.835701 55.1951 0.933949 54.8636 1.13281 54.5724C1.33404 54.2789 1.60985 54.0481 1.96023 53.88C2.31061 53.7119 2.70952 53.6278 3.15696 53.6278C3.59967 53.6278 3.99503 53.7131 4.34304 53.8835C4.69342 54.0516 4.96922 54.2824 5.17045 54.576C5.37169 54.8672 5.47348 55.1974 5.47585 55.5668C5.47348 55.9574 5.36222 56.303 5.14205 56.6037C4.92188 56.9044 4.63542 57.0985 4.28267 57.1861V57.2287C4.55492 57.276 4.79995 57.3873 5.01776 57.5625C5.23793 57.7353 5.41312 57.9519 5.54332 58.2124C5.6759 58.4704 5.74337 58.7533 5.74574 59.0611C5.74337 59.4541 5.6321 59.8045 5.41193 60.1122C5.19176 60.42 4.88636 60.6615 4.49574 60.8366C4.10748 61.0118 3.66122 61.0994 3.15696 61.0994ZM3.15696 60.201C3.45762 60.201 3.71804 60.1513 3.93821 60.0518C4.15838 59.95 4.32884 59.8092 4.44957 59.6293C4.57031 59.447 4.63187 59.2339 4.63423 58.9901C4.63187 58.7367 4.56558 58.513 4.43537 58.3189C4.30753 58.1248 4.13352 57.9721 3.91335 57.8608C3.69318 57.7495 3.44105 57.6939 3.15696 57.6939C2.8705 57.6939 2.616 57.7495 2.39347 57.8608C2.17093 57.9721 1.99574 58.1248 1.8679 58.3189C1.74006 58.513 1.67732 58.7367 1.67969 58.9901C1.67732 59.2339 1.73532 59.447 1.85369 59.6293C1.97443 59.8092 2.14607 59.95 2.36861 60.0518C2.59115 60.1513 2.85393 60.201 3.15696 60.201ZM3.15696 56.8168C3.39844 56.8168 3.61269 56.7682 3.79972 56.6712C3.98674 56.5741 4.13352 56.4392 4.24006 56.2663C4.34896 56.0935 4.40459 55.8911 4.40696 55.6591C4.40459 55.4318 4.35014 55.233 4.24361 55.0625C4.13944 54.892 3.99384 54.7607 3.80682 54.6683C3.61979 54.5736 3.40317 54.5263 3.15696 54.5263C2.90601 54.5263 2.68584 54.5736 2.49645 54.6683C2.30942 54.7607 2.16383 54.892 2.05966 55.0625C1.95549 55.233 1.90459 55.4318 1.90696 55.6591C1.90459 55.8911 1.95668 56.0935 2.06321 56.2663C2.16974 56.4392 2.31652 56.5741 2.50355 56.6712C2.69295 56.7682 2.91075 56.8168 3.15696 56.8168ZM9.44989 61.1207C8.88881 61.1184 8.40941 60.9704 8.01168 60.6768C7.61396 60.3833 7.30974 59.956 7.09904 59.3949C6.88834 58.8338 6.78299 58.1579 6.78299 57.3672C6.78299 56.5788 6.88834 55.9053 7.09904 55.3466C7.31211 54.7879 7.61751 54.3617 8.01523 54.0682C8.41533 53.7746 8.89355 53.6278 9.44989 53.6278C10.0062 53.6278 10.4833 53.7758 10.881 54.0717C11.2787 54.3653 11.5829 54.7914 11.7936 55.3501C12.0067 55.9065 12.1132 56.5788 12.1132 57.3672C12.1132 58.1603 12.0079 58.8374 11.7972 59.3984C11.5865 59.9571 11.2823 60.3845 10.8846 60.6804C10.4868 60.974 10.0086 61.1207 9.44989 61.1207ZM9.44989 60.1726C9.94232 60.1726 10.327 59.9323 10.604 59.4517C10.8834 58.9711 11.023 58.2763 11.023 57.3672C11.023 56.7635 10.9591 56.2533 10.8313 55.8366C10.7058 55.4176 10.5247 55.1004 10.288 54.8849C10.0536 54.6671 9.77423 54.5582 9.44989 54.5582C8.95984 54.5582 8.57513 54.7997 8.29577 55.2827C8.01642 55.7656 7.87556 56.4605 7.87319 57.3672C7.87319 57.9732 7.93593 58.4858 8.0614 58.9048C8.18924 59.3215 8.37035 59.6375 8.60472 59.853C8.8391 60.0661 9.12082 60.1726 9.44989 60.1726Z" fill="#99A5B0"/>
<line x1="26" y1="56.5" x2="632" y2="56.5" stroke="#C7D3E1" stroke-dasharray="4 4"/>
<path d="M3.23864 111.099C2.9143 111.095 2.5947 111.036 2.27983 110.922C1.96733 110.808 1.68324 110.619 1.42756 110.354C1.17188 110.089 0.967093 109.732 0.81321 109.285C0.661695 108.837 0.585938 108.279 0.585938 107.609C0.585938 106.974 0.648674 106.411 0.774148 105.918C0.901989 105.426 1.08546 105.01 1.32457 104.672C1.56368 104.331 1.85251 104.072 2.19105 103.894C2.52959 103.717 2.90956 103.628 3.33097 103.628C3.7642 103.628 4.14891 103.713 4.48509 103.884C4.82126 104.054 5.09351 104.29 5.30185 104.59C5.51255 104.891 5.64631 105.233 5.70312 105.616H4.62003C4.54664 105.313 4.40104 105.066 4.18324 104.874C3.96544 104.683 3.68134 104.587 3.33097 104.587C2.7983 104.587 2.38281 104.819 2.08452 105.283C1.78859 105.747 1.63944 106.392 1.63707 107.218H1.69034C1.81581 107.012 1.9697 106.837 2.15199 106.692C2.33665 106.546 2.54261 106.433 2.76989 106.355C2.99953 106.275 3.241 106.234 3.49432 106.234C3.91572 106.234 4.29688 106.337 4.63778 106.543C4.98106 106.747 5.2545 107.029 5.4581 107.388C5.6617 107.748 5.76349 108.16 5.76349 108.624C5.76349 109.088 5.65814 109.509 5.44744 109.885C5.23911 110.261 4.94555 110.56 4.56676 110.78C4.18797 110.998 3.74527 111.104 3.23864 111.099ZM3.23509 110.176C3.51444 110.176 3.7642 110.107 3.98438 109.97C4.20455 109.833 4.37855 109.648 4.50639 109.416C4.63423 109.184 4.69815 108.925 4.69815 108.638C4.69815 108.359 4.63542 108.105 4.50994 107.875C4.38684 107.645 4.21638 107.463 3.99858 107.328C3.78314 107.193 3.53693 107.126 3.25994 107.126C3.04924 107.126 2.85393 107.166 2.67401 107.246C2.49645 107.327 2.3402 107.438 2.20526 107.58C2.07031 107.722 1.96378 107.886 1.88565 108.07C1.8099 108.253 1.77202 108.446 1.77202 108.649C1.77202 108.921 1.83475 109.174 1.96023 109.406C2.08807 109.638 2.26207 109.825 2.48224 109.967C2.70478 110.106 2.95573 110.176 3.23509 110.176ZM9.48896 111.121C8.92788 111.118 8.44847 110.97 8.05075 110.677C7.65302 110.383 7.3488 109.956 7.1381 109.395C6.9274 108.834 6.82205 108.158 6.82205 107.367C6.82205 106.579 6.9274 105.905 7.1381 105.347C7.35117 104.788 7.65657 104.362 8.0543 104.068C8.45439 103.775 8.93261 103.628 9.48896 103.628C10.0453 103.628 10.5223 103.776 10.9201 104.072C11.3178 104.365 11.622 104.791 11.8327 105.35C12.0458 105.906 12.1523 106.579 12.1523 107.367C12.1523 108.16 12.047 108.837 11.8363 109.398C11.6256 109.957 11.3213 110.384 10.9236 110.68C10.5259 110.974 10.0477 111.121 9.48896 111.121ZM9.48896 110.173C9.98138 110.173 10.3661 109.932 10.6431 109.452C10.9224 108.971 11.0621 108.276 11.0621 107.367C11.0621 106.763 10.9982 106.253 10.8703 105.837C10.7449 105.418 10.5638 105.1 10.327 104.885C10.0926 104.667 9.81329 104.558 9.48896 104.558C8.9989 104.558 8.61419 104.8 8.33484 105.283C8.05548 105.766 7.91462 106.46 7.91225 107.367C7.91225 107.973 7.97499 108.486 8.10046 108.905C8.2283 109.321 8.40941 109.638 8.64379 109.853C8.87816 110.066 9.15988 110.173 9.48896 110.173Z" fill="#99A5B0"/>
<line x1="26" y1="106.5" x2="632" y2="106.5" stroke="#C7D3E1" stroke-dasharray="4 4"/>
<path d="M0.546875 159.58V158.692L3.68963 153.727H4.3892V155.034H3.94531L1.69744 158.592V158.649H6.00497V159.58H0.546875ZM3.99503 161V159.31L4.00213 158.905V153.727H5.04261V161H3.99503ZM9.6745 161.121C9.11342 161.118 8.63402 160.97 8.23629 160.677C7.83857 160.383 7.53435 159.956 7.32365 159.395C7.11295 158.834 7.0076 158.158 7.0076 157.367C7.0076 156.579 7.11295 155.905 7.32365 155.347C7.53672 154.788 7.84212 154.362 8.23984 154.068C8.63994 153.775 9.11816 153.628 9.6745 153.628C10.2308 153.628 10.7079 153.776 11.1056 154.072C11.5033 154.365 11.8076 154.791 12.0183 155.35C12.2313 155.906 12.3379 156.579 12.3379 157.367C12.3379 158.16 12.2325 158.837 12.0218 159.398C11.8111 159.957 11.5069 160.384 11.1092 160.68C10.7114 160.974 10.2332 161.121 9.6745 161.121ZM9.6745 160.173C10.1669 160.173 10.5516 159.932 10.8286 159.452C11.108 158.971 11.2477 158.276 11.2477 157.367C11.2477 156.763 11.1837 156.253 11.0559 155.837C10.9304 155.418 10.7493 155.1 10.5126 154.885C10.2782 154.667 9.99884 154.558 9.6745 154.558C9.18445 154.558 8.79974 154.8 8.52038 155.283C8.24103 155.766 8.10017 156.46 8.0978 157.367C8.0978 157.973 8.16054 158.486 8.28601 158.905C8.41385 159.321 8.59496 159.638 8.82933 159.853C9.06371 160.066 9.34543 160.173 9.6745 160.173Z" fill="#99A5B0"/>
<line x1="26" y1="156.5" x2="632" y2="156.5" stroke="#C7D3E1" stroke-dasharray="4 4"/>
<path d="M0.699574 211V210.205L3.16051 207.655C3.4233 207.378 3.63991 207.135 3.81037 206.927C3.98319 206.716 4.11222 206.516 4.19744 206.327C4.28267 206.137 4.32528 205.936 4.32528 205.723C4.32528 205.482 4.26847 205.273 4.15483 205.098C4.04119 204.92 3.88613 204.784 3.68963 204.69C3.49313 204.593 3.27178 204.544 3.02557 204.544C2.76515 204.544 2.53788 204.597 2.34375 204.704C2.14962 204.81 2.00047 204.961 1.89631 205.155C1.79214 205.349 1.74006 205.576 1.74006 205.837H0.692472C0.692472 205.394 0.794271 205.007 0.997869 204.675C1.20147 204.344 1.48082 204.087 1.83594 203.905C2.19105 203.72 2.5947 203.628 3.04688 203.628C3.50379 203.628 3.90625 203.719 4.25426 203.901C4.60464 204.081 4.87808 204.327 5.07457 204.64C5.27107 204.95 5.36932 205.3 5.36932 205.691C5.36932 205.961 5.31842 206.225 5.21662 206.483C5.11719 206.741 4.94318 207.029 4.6946 207.346C4.44602 207.661 4.10038 208.043 3.65767 208.493L2.21236 210.006V210.059H5.48651V211H0.699574ZM9.26435 211.121C8.70327 211.118 8.22386 210.97 7.82614 210.677C7.42841 210.383 7.1242 209.956 6.91349 209.395C6.70279 208.834 6.59744 208.158 6.59744 207.367C6.59744 206.579 6.70279 205.905 6.91349 205.347C7.12656 204.788 7.43196 204.362 7.82969 204.068C8.22978 203.775 8.708 203.628 9.26435 203.628C9.82069 203.628 10.2977 203.776 10.6955 204.072C11.0932 204.365 11.3974 204.791 11.6081 205.35C11.8212 205.906 11.9277 206.579 11.9277 207.367C11.9277 208.16 11.8223 208.837 11.6116 209.398C11.4009 209.957 11.0967 210.384 10.699 210.68C10.3013 210.974 9.82306 211.121 9.26435 211.121ZM9.26435 210.173C9.75677 210.173 10.1415 209.932 10.4185 209.452C10.6978 208.971 10.8375 208.276 10.8375 207.367C10.8375 206.763 10.7736 206.253 10.6457 205.837C10.5203 205.418 10.3392 205.1 10.1024 204.885C9.86804 204.667 9.58868 204.558 9.26435 204.558C8.77429 204.558 8.38958 204.8 8.11023 205.283C7.83087 205.766 7.69001 206.46 7.68764 207.367C7.68764 207.973 7.75038 208.486 7.87585 208.905C8.00369 209.321 8.1848 209.638 8.41918 209.853C8.65355 210.066 8.93527 210.173 9.26435 210.173Z" fill="#99A5B0"/>
<line x1="26" y1="206.5" x2="632" y2="206.5" stroke="#C7D3E1" stroke-dasharray="4 4"/>
<path d="M3.23153 261.121C2.67045 261.118 2.19105 260.97 1.79332 260.677C1.3956 260.383 1.09138 259.956 0.880682 259.395C0.669981 258.834 0.564631 258.158 0.564631 257.367C0.564631 256.579 0.669981 255.905 0.880682 255.347C1.09375 254.788 1.39915 254.362 1.79688 254.068C2.19697 253.775 2.67519 253.628 3.23153 253.628C3.78788 253.628 4.26491 253.776 4.66264 254.072C5.06037 254.365 5.36458 254.791 5.57528 255.35C5.78835 255.906 5.89489 256.579 5.89489 257.367C5.89489 258.16 5.78954 258.837 5.57884 259.398C5.36813 259.957 5.06392 260.384 4.66619 260.68C4.26847 260.974 3.79025 261.121 3.23153 261.121ZM3.23153 260.173C3.72396 260.173 4.10866 259.932 4.38565 259.452C4.66501 258.971 4.80469 258.276 4.80469 257.367C4.80469 256.763 4.74077 256.253 4.61293 255.837C4.48745 255.418 4.30634 255.1 4.0696 254.885C3.83523 254.667 3.55587 254.558 3.23153 254.558C2.74148 254.558 2.35677 254.8 2.07741 255.283C1.79806 255.766 1.6572 256.46 1.65483 257.367C1.65483 257.973 1.71757 258.486 1.84304 258.905C1.97088 259.321 2.15199 259.638 2.38636 259.853C2.62074 260.066 2.90246 260.173 3.23153 260.173Z" fill="#99A5B0"/>
<line x1="26" y1="256.5" x2="632" y2="256.5" stroke="#C7D3E1" stroke-dasharray="4 4"/>
<g clip-path="url(#clip0_244_8698)">
<path opacity="0.1" d="M77.5 178C51 178 38.8 164.047 26 160.882V256H632.5V94.5C587.5 94.5 602.5 180.5 572.5 180.5C537 180.5 504.5 220.5 473.5 220.5C440 220.5 404.5 184 374.5 184C343 184 316 215.5 275.5 215.5C235 215.5 216 99 176.5 99C137 99 102 178 77.5 178Z" fill="#2E4AAE"/>
<path d="M26 160.882C38.8 164.047 51 178 77.5 178C102 178 137 99 176.5 99C216 99 235 215.5 275.5 215.5C316 215.5 343 184 374.5 184C404.5 184 440 220.5 473.5 220.5C504.5 220.5 537 180.5 572.5 180.5C602.5 180.5 587.5 94.5 632.5 94.5" stroke="#2E4AAE" stroke-width="2"/>
<path d="M26 165C28.2091 165 30 163.209 30 161C30 158.791 28.2091 157 26 157C23.7909 157 22 158.791 22 161C22 163.209 23.7909 165 26 165Z" fill="#2E4AAE"/>
<path d="M77 182C79.2091 182 81 180.209 81 178C81 175.791 79.2091 174 77 174C74.7909 174 73 175.791 73 178C73 180.209 74.7909 182 77 182Z" fill="#2E4AAE"/>
<path d="M177 103C179.209 103 181 101.209 181 99C181 96.7909 179.209 95 177 95C174.791 95 173 96.7909 173 99C173 101.209 174.791 103 177 103Z" fill="#2E4AAE"/>
<path d="M276 219C278.209 219 280 217.209 280 215C280 212.791 278.209 211 276 211C273.791 211 272 212.791 272 215C272 217.209 273.791 219 276 219Z" fill="#2E4AAE"/>
<path d="M375 188C377.209 188 379 186.209 379 184C379 181.791 377.209 180 375 180C372.791 180 371 181.791 371 184C371 186.209 372.791 188 375 188Z" fill="#2E4AAE"/>
<path d="M474 224C476.209 224 478 222.209 478 220C478 217.791 476.209 216 474 216C471.791 216 470 217.791 470 220C470 222.209 471.791 224 474 224Z" fill="#2E4AAE"/>
<path d="M572 185C574.209 185 576 183.209 576 181C576 178.791 574.209 177 572 177C569.791 177 568 178.791 568 181C568 183.209 569.791 185 572 185Z" fill="#2E4AAE"/>
<path d="M633 99C635.209 99 637 97.2091 637 95C637 92.7909 635.209 91 633 91C630.791 91 629 92.7909 629 95C629 97.2091 630.791 99 633 99Z" fill="#2E4AAE"/>
</g>
<g filter="url(#filter0_d_244_8698)">
<rect x="107" y="41" width="142" height="44" rx="4" fill="white" shape-rendering="crispEdges"/>
<path d="M134.902 49.7273H136.233L138.549 55.3807H138.634L140.949 49.7273H142.281V57H141.237V51.7372H141.169L139.025 56.9893H138.158L136.013 51.7337H135.946V57H134.902V49.7273ZM145.989 57.1101C145.477 57.1101 145.031 56.9929 144.65 56.7585C144.269 56.5241 143.973 56.1963 143.762 55.7749C143.551 55.3535 143.446 54.861 143.446 54.2976C143.446 53.7318 143.551 53.237 143.762 52.8132C143.973 52.3894 144.269 52.0604 144.65 51.826C145.031 51.5916 145.477 51.4744 145.989 51.4744C146.5 51.4744 146.946 51.5916 147.327 51.826C147.709 52.0604 148.005 52.3894 148.215 52.8132C148.426 53.237 148.531 53.7318 148.531 54.2976C148.531 54.861 148.426 55.3535 148.215 55.7749C148.005 56.1963 147.709 56.5241 147.327 56.7585C146.946 56.9929 146.5 57.1101 145.989 57.1101ZM145.992 56.2188C146.324 56.2188 146.598 56.1312 146.816 55.956C147.034 55.7808 147.195 55.5476 147.299 55.2564C147.406 54.9652 147.459 54.6444 147.459 54.294C147.459 53.946 147.406 53.6264 147.299 53.3352C147.195 53.0417 147.034 52.8061 146.816 52.6286C146.598 52.451 146.324 52.3622 145.992 52.3622C145.658 52.3622 145.381 52.451 145.161 52.6286C144.943 52.8061 144.781 53.0417 144.675 53.3352C144.571 53.6264 144.519 53.946 144.519 54.294C144.519 54.6444 144.571 54.9652 144.675 55.2564C144.781 55.5476 144.943 55.7808 145.161 55.956C145.381 56.1312 145.658 56.2188 145.992 56.2188ZM150.678 53.7614V57H149.617V51.5455H150.636V52.4332H150.703C150.829 52.1444 151.025 51.9124 151.293 51.7372C151.563 51.562 151.902 51.4744 152.312 51.4744C152.684 51.4744 153.009 51.5526 153.288 51.7088C153.568 51.8627 153.784 52.0923 153.938 52.3977C154.092 52.7031 154.169 53.0807 154.169 53.5305V57H153.107V53.6584C153.107 53.263 153.004 52.9541 152.798 52.7315C152.592 52.5066 152.309 52.3942 151.95 52.3942C151.703 52.3942 151.484 52.4474 151.293 52.554C151.103 52.6605 150.953 52.8168 150.842 53.0227C150.733 53.2263 150.678 53.4725 150.678 53.7614ZM156.874 56.0057L156.821 56.3928C156.786 56.6768 156.725 56.9728 156.64 57.2805C156.557 57.5907 156.471 57.8783 156.381 58.1435C156.293 58.4086 156.221 58.6193 156.164 58.7756H155.411C155.442 58.6288 155.485 58.4299 155.539 58.179C155.594 57.9304 155.647 57.6522 155.699 57.3445C155.751 57.0367 155.79 56.723 155.816 56.4034L155.852 56.0057H156.874ZM163.221 57.1207C162.66 57.1184 162.181 56.9704 161.783 56.6768C161.385 56.3833 161.081 55.956 160.87 55.3949C160.659 54.8338 160.554 54.1579 160.554 53.3672C160.554 52.5788 160.659 51.9053 160.87 51.3466C161.083 50.7879 161.389 50.3617 161.786 50.0682C162.186 49.7746 162.665 49.6278 163.221 49.6278C163.777 49.6278 164.254 49.7758 164.652 50.0717C165.05 50.3653 165.354 50.7914 165.565 51.3501C165.778 51.9065 165.884 52.5788 165.884 53.3672C165.884 54.1603 165.779 54.8374 165.568 55.3984C165.358 55.9571 165.053 56.3845 164.656 56.6804C164.258 56.974 163.78 57.1207 163.221 57.1207ZM163.221 56.1726C163.713 56.1726 164.098 55.9323 164.375 55.4517C164.654 54.9711 164.794 54.2763 164.794 53.3672C164.794 52.7635 164.73 52.2533 164.602 51.8366C164.477 51.4176 164.296 51.1004 164.059 50.8849C163.825 50.6671 163.545 50.5582 163.221 50.5582C162.731 50.5582 162.346 50.7997 162.067 51.2827C161.788 51.7656 161.647 52.4605 161.644 53.3672C161.644 53.9732 161.707 54.4858 161.832 54.9048C161.96 55.3215 162.141 55.6375 162.376 55.853C162.61 56.0661 162.892 56.1726 163.221 56.1726ZM169.445 57.0994C169 57.0994 168.6 57.0142 168.244 56.8438C167.892 56.6709 167.61 56.4342 167.399 56.1335C167.189 55.8329 167.076 55.4896 167.062 55.1037H168.127C168.153 55.4162 168.292 55.6731 168.543 55.8743C168.794 56.0755 169.094 56.1761 169.445 56.1761C169.724 56.1761 169.971 56.1122 170.187 55.9844C170.405 55.8542 170.575 55.6754 170.698 55.4482C170.824 55.2209 170.886 54.9616 170.886 54.6705C170.886 54.3745 170.823 54.1106 170.695 53.8786C170.567 53.6465 170.39 53.4643 170.166 53.3317C169.943 53.1991 169.687 53.1316 169.399 53.1293C169.178 53.1293 168.957 53.1671 168.734 53.2429C168.512 53.3187 168.332 53.4181 168.195 53.5412L167.19 53.392L167.598 49.7273H171.597V50.6683H168.511L168.28 52.7031H168.323C168.465 52.5658 168.653 52.451 168.887 52.3587C169.124 52.2663 169.377 52.2202 169.647 52.2202C170.09 52.2202 170.484 52.3255 170.83 52.5362C171.178 52.7469 171.451 53.0346 171.65 53.3991C171.851 53.7614 171.951 54.178 171.948 54.6491C171.951 55.1203 171.844 55.5405 171.629 55.9098C171.416 56.2791 171.12 56.5703 170.741 56.7834C170.364 56.9941 169.932 57.0994 169.445 57.0994ZM178.618 49.7273H179.712V54.8835C179.712 55.3499 179.619 55.7488 179.435 56.0803C179.252 56.4117 178.996 56.665 178.664 56.8402C178.333 57.013 177.944 57.0994 177.499 57.0994C177.09 57.0994 176.722 57.0249 176.395 56.8757C176.071 56.7266 175.814 56.5099 175.624 56.2259C175.437 55.9394 175.344 55.5914 175.344 55.1818H176.434C176.434 55.383 176.48 55.5571 176.572 55.7038C176.667 55.8506 176.796 55.9654 176.96 56.0483C177.125 56.1288 177.315 56.169 177.528 56.169C177.76 56.169 177.956 56.1205 178.117 56.0234C178.281 55.924 178.405 55.7784 178.49 55.5866C178.575 55.3949 178.618 55.1605 178.618 54.8835V49.7273ZM182.711 57.1207C182.365 57.1207 182.053 57.0568 181.773 56.929C181.494 56.7988 181.273 56.6106 181.109 56.3643C180.948 56.1181 180.868 55.8163 180.868 55.4588C180.868 55.151 180.927 54.8977 181.045 54.6989C181.164 54.5 181.324 54.3426 181.525 54.2266C181.726 54.1106 181.951 54.023 182.2 53.9638C182.448 53.9046 182.701 53.8596 182.959 53.8288C183.286 53.791 183.551 53.7602 183.755 53.7365C183.959 53.7105 184.106 53.669 184.199 53.6122C184.291 53.5554 184.337 53.4631 184.337 53.3352V53.3104C184.337 53.0002 184.25 52.7599 184.075 52.5895C183.902 52.419 183.644 52.3338 183.3 52.3338C182.943 52.3338 182.661 52.4131 182.455 52.5717C182.252 52.728 182.111 52.902 182.033 53.0938L181.035 52.8665C181.153 52.535 181.326 52.2675 181.553 52.0639C181.783 51.858 182.047 51.7088 182.345 51.6165C182.643 51.5218 182.957 51.4744 183.286 51.4744C183.504 51.4744 183.735 51.5005 183.979 51.5526C184.225 51.6023 184.455 51.6946 184.668 51.8295C184.883 51.9645 185.059 52.1574 185.197 52.4084C185.334 52.657 185.403 52.9801 185.403 53.3778V57H184.366V56.2543H184.323C184.254 56.3916 184.151 56.5265 184.014 56.6591C183.877 56.7917 183.7 56.9018 183.485 56.9893C183.27 57.0769 183.012 57.1207 182.711 57.1207ZM182.942 56.2685C183.235 56.2685 183.486 56.2105 183.695 56.0945C183.905 55.9785 184.065 55.8269 184.174 55.6399C184.285 55.4505 184.341 55.2481 184.341 55.0327V54.3295C184.303 54.3674 184.23 54.4029 184.121 54.4361C184.014 54.4669 183.892 54.4941 183.755 54.5178C183.618 54.5391 183.484 54.5592 183.354 54.5781C183.223 54.5947 183.115 54.6089 183.027 54.6207C182.821 54.6468 182.633 54.6906 182.462 54.7521C182.294 54.8137 182.159 54.9025 182.057 55.0185C181.958 55.1321 181.908 55.2836 181.908 55.473C181.908 55.7358 182.005 55.9347 182.2 56.0696C182.394 56.2022 182.641 56.2685 182.942 56.2685ZM187.779 53.7614V57H186.717V51.5455H187.736V52.4332H187.804C187.929 52.1444 188.126 51.9124 188.393 51.7372C188.663 51.562 189.003 51.4744 189.412 51.4744C189.784 51.4744 190.109 51.5526 190.389 51.7088C190.668 51.8627 190.885 52.0923 191.039 52.3977C191.193 52.7031 191.269 53.0807 191.269 53.5305V57H190.208V53.6584C190.208 53.263 190.105 52.9541 189.899 52.7315C189.693 52.5066 189.41 52.3942 189.05 52.3942C188.804 52.3942 188.585 52.4474 188.393 52.554C188.204 52.6605 188.053 52.8168 187.942 53.0227C187.833 53.2263 187.779 53.4725 187.779 53.7614ZM193.975 56.0057L193.922 56.3928C193.886 56.6768 193.826 56.9728 193.74 57.2805C193.658 57.5907 193.571 57.8783 193.481 58.1435C193.394 58.4086 193.321 58.6193 193.265 58.7756H192.512C192.543 58.6288 192.585 58.4299 192.64 58.179C192.694 57.9304 192.747 57.6522 192.799 57.3445C192.852 57.0367 192.891 56.723 192.917 56.4034L192.952 56.0057H193.975ZM197.789 57V56.2045L200.25 53.6548C200.513 53.3778 200.73 53.1352 200.9 52.9268C201.073 52.7161 201.202 52.5161 201.287 52.3267C201.373 52.1373 201.415 51.9361 201.415 51.723C201.415 51.4815 201.358 51.2732 201.245 51.098C201.131 50.9205 200.976 50.7843 200.779 50.6896C200.583 50.5926 200.362 50.544 200.115 50.544C199.855 50.544 199.628 50.5973 199.434 50.7038C199.239 50.8104 199.09 50.9607 198.986 51.1548C198.882 51.349 198.83 51.5762 198.83 51.8366H197.782C197.782 51.3939 197.884 51.0069 198.088 50.6754C198.291 50.344 198.571 50.0871 198.926 49.9048C199.281 49.7202 199.685 49.6278 200.137 49.6278C200.594 49.6278 200.996 49.719 201.344 49.9013C201.694 50.0812 201.968 50.3274 202.164 50.6399C202.361 50.95 202.459 51.3004 202.459 51.6911C202.459 51.9609 202.408 52.2249 202.306 52.483C202.207 52.741 202.033 53.0286 201.784 53.3459C201.536 53.6607 201.19 54.0431 200.748 54.4929L199.302 56.0057V56.0589H202.576V57H197.789ZM206.354 57.1207C205.793 57.1184 205.314 56.9704 204.916 56.6768C204.518 56.3833 204.214 55.956 204.003 55.3949C203.793 54.8338 203.687 54.1579 203.687 53.3672C203.687 52.5788 203.793 51.9053 204.003 51.3466C204.216 50.7879 204.522 50.3617 204.92 50.0682C205.32 49.7746 205.798 49.6278 206.354 49.6278C206.911 49.6278 207.388 49.7758 207.785 50.0717C208.183 50.3653 208.487 50.7914 208.698 51.3501C208.911 51.9065 209.018 52.5788 209.018 53.3672C209.018 54.1603 208.912 54.8374 208.701 55.3984C208.491 55.9571 208.187 56.3845 207.789 56.6804C207.391 56.974 206.913 57.1207 206.354 57.1207ZM206.354 56.1726C206.847 56.1726 207.231 55.9323 207.508 55.4517C207.788 54.9711 207.927 54.2763 207.927 53.3672C207.927 52.7635 207.863 52.2533 207.736 51.8366C207.61 51.4176 207.429 51.1004 207.192 50.8849C206.958 50.6671 206.679 50.5582 206.354 50.5582C205.864 50.5582 205.479 50.7997 205.2 51.2827C204.921 51.7656 204.78 52.4605 204.777 53.3672C204.777 53.9732 204.84 54.4858 204.966 54.9048C205.094 55.3215 205.275 55.6375 205.509 55.853C205.743 56.0661 206.025 56.1726 206.354 56.1726ZM210.177 57V56.2045L212.638 53.6548C212.901 53.3778 213.118 53.1352 213.288 52.9268C213.461 52.7161 213.59 52.5161 213.675 52.3267C213.76 52.1373 213.803 51.9361 213.803 51.723C213.803 51.4815 213.746 51.2732 213.633 51.098C213.519 50.9205 213.364 50.7843 213.167 50.6896C212.971 50.5926 212.75 50.544 212.503 50.544C212.243 50.544 212.016 50.5973 211.821 50.7038C211.627 50.8104 211.478 50.9607 211.374 51.1548C211.27 51.349 211.218 51.5762 211.218 51.8366H210.17C210.17 51.3939 210.272 51.0069 210.476 50.6754C210.679 50.344 210.959 50.0871 211.314 49.9048C211.669 49.7202 212.072 49.6278 212.525 49.6278C212.982 49.6278 213.384 49.719 213.732 49.9013C214.082 50.0812 214.356 50.3274 214.552 50.6399C214.749 50.95 214.847 51.3004 214.847 51.6911C214.847 51.9609 214.796 52.2249 214.694 52.483C214.595 52.741 214.421 53.0286 214.172 53.3459C213.924 53.6607 213.578 54.0431 213.135 54.4929L211.69 56.0057V56.0589H214.964V57H210.177ZM215.901 55.5795V54.6918L219.044 49.7273H219.743V51.0341H219.3L217.052 54.5923V54.6491H221.359V55.5795H215.901ZM219.349 57V55.3097L219.356 54.9048V49.7273H220.397V57H219.349Z" fill="#6C859B"/>
<path d="M117.931 75H115.953L118.966 66.2727H121.344L124.353 75H122.375L120.189 68.267H120.121L117.931 75ZM117.807 71.5696H122.478V73.0099H117.807V71.5696ZM128.44 68.4545V69.8182H124.499V68.4545H128.44ZM125.393 66.8864H127.209V72.9886C127.209 73.1562 127.234 73.2869 127.286 73.3807C127.337 73.4716 127.408 73.5355 127.499 73.5724C127.592 73.6094 127.7 73.6278 127.822 73.6278C127.908 73.6278 127.993 73.6207 128.078 73.6065C128.163 73.5895 128.229 73.5767 128.274 73.5682L128.56 74.919C128.469 74.9474 128.341 74.9801 128.176 75.017C128.011 75.0568 127.811 75.081 127.575 75.0895C127.138 75.1065 126.754 75.0483 126.425 74.9148C126.098 74.7812 125.844 74.5739 125.662 74.2926C125.48 74.0114 125.391 73.6562 125.393 73.2273V66.8864ZM133.104 68.4545V69.8182H129.163V68.4545H133.104ZM130.058 66.8864H131.873V72.9886C131.873 73.1562 131.898 73.2869 131.95 73.3807C132.001 73.4716 132.072 73.5355 132.163 73.5724C132.256 73.6094 132.364 73.6278 132.487 73.6278C132.572 73.6278 132.657 73.6207 132.742 73.6065C132.827 73.5895 132.893 73.5767 132.938 73.5682L133.224 74.919C133.133 74.9474 133.005 74.9801 132.84 75.017C132.675 75.0568 132.475 75.081 132.239 75.0895C131.802 75.1065 131.418 75.0483 131.089 74.9148C130.762 74.7812 130.508 74.5739 130.326 74.2926C130.144 74.0114 130.055 73.6562 130.058 73.2273V66.8864ZM137.2 75.1278C136.526 75.1278 135.947 74.9915 135.461 74.7188C134.978 74.4432 134.606 74.054 134.344 73.5511C134.083 73.0455 133.952 72.4474 133.952 71.7571C133.952 71.0838 134.083 70.4929 134.344 69.9844C134.606 69.4759 134.974 69.0795 135.448 68.7955C135.925 68.5114 136.485 68.3693 137.127 68.3693C137.559 68.3693 137.961 68.4389 138.333 68.5781C138.708 68.7145 139.035 68.9205 139.313 69.196C139.594 69.4716 139.813 69.8182 139.969 70.2358C140.126 70.6506 140.204 71.1364 140.204 71.6932V72.1918H134.677V71.0668H138.495C138.495 70.8054 138.438 70.5739 138.325 70.3722C138.211 70.1705 138.053 70.0128 137.852 69.8991C137.653 69.7827 137.421 69.7244 137.157 69.7244C136.881 69.7244 136.637 69.7884 136.424 69.9162C136.214 70.0412 136.049 70.2102 135.93 70.4233C135.81 70.6335 135.749 70.8679 135.746 71.1264V72.196C135.746 72.5199 135.806 72.7997 135.925 73.0355C136.048 73.2713 136.219 73.4531 136.441 73.581C136.663 73.7088 136.925 73.7727 137.229 73.7727C137.431 73.7727 137.616 73.7443 137.783 73.6875C137.951 73.6307 138.094 73.5455 138.214 73.4318C138.333 73.3182 138.424 73.179 138.487 73.0142L140.165 73.125C140.08 73.5284 139.906 73.8807 139.641 74.1818C139.38 74.4801 139.042 74.7131 138.627 74.8807C138.215 75.0455 137.739 75.1278 137.2 75.1278ZM143.204 71.2159V75H141.388V68.4545H143.119V69.6094H143.195C143.34 69.2287 143.583 68.9276 143.924 68.706C144.265 68.4815 144.678 68.3693 145.164 68.3693C145.619 68.3693 146.015 68.4688 146.353 68.6676C146.691 68.8665 146.954 69.1506 147.141 69.5199C147.329 69.8864 147.423 70.3239 147.423 70.8324V75H145.607V71.1562C145.61 70.7557 145.508 70.4432 145.3 70.2188C145.093 69.9915 144.808 69.8778 144.444 69.8778C144.2 69.8778 143.984 69.9304 143.796 70.0355C143.612 70.1406 143.467 70.294 143.362 70.4957C143.259 70.6946 143.207 70.9347 143.204 71.2159ZM151.265 75.1065C150.768 75.1065 150.318 74.9787 149.914 74.723C149.514 74.4645 149.196 74.0852 148.96 73.5852C148.727 73.0824 148.61 72.4659 148.61 71.7358C148.61 70.9858 148.731 70.3622 148.973 69.8651C149.214 69.3651 149.535 68.9915 149.936 68.7443C150.339 68.4943 150.781 68.3693 151.261 68.3693C151.627 68.3693 151.933 68.4318 152.177 68.5568C152.424 68.679 152.623 68.8324 152.774 69.017C152.927 69.1989 153.044 69.3778 153.123 69.554H153.179V66.2727H154.99V75H153.2V73.9517H153.123C153.038 74.1335 152.917 74.3139 152.761 74.4929C152.608 74.669 152.407 74.8153 152.16 74.9318C151.916 75.0483 151.618 75.1065 151.265 75.1065ZM151.841 73.6619C152.133 73.6619 152.38 73.5824 152.582 73.4233C152.787 73.2614 152.943 73.0355 153.051 72.7457C153.162 72.456 153.217 72.1165 153.217 71.7273C153.217 71.3381 153.163 71 153.055 70.7131C152.947 70.4261 152.791 70.2045 152.586 70.0483C152.382 69.892 152.133 69.8139 151.841 69.8139C151.542 69.8139 151.291 69.8949 151.086 70.0568C150.882 70.2187 150.727 70.4432 150.622 70.7301C150.517 71.017 150.464 71.3494 150.464 71.7273C150.464 72.108 150.517 72.4446 150.622 72.7372C150.73 73.027 150.885 73.2543 151.086 73.419C151.291 73.581 151.542 73.6619 151.841 73.6619ZM158.349 75.1236C157.931 75.1236 157.559 75.0511 157.232 74.9062C156.906 74.7585 156.647 74.5412 156.457 74.2543C156.269 73.9645 156.175 73.6037 156.175 73.1719C156.175 72.8082 156.242 72.5028 156.376 72.2557C156.509 72.0085 156.691 71.8097 156.921 71.6591C157.151 71.5085 157.413 71.3949 157.705 71.3182C158.001 71.2415 158.31 71.1875 158.634 71.1562C159.015 71.1165 159.322 71.0795 159.555 71.0455C159.788 71.0085 159.957 70.9545 160.062 70.8835C160.167 70.8125 160.219 70.7074 160.219 70.5682V70.5426C160.219 70.2727 160.134 70.0639 159.964 69.9162C159.796 69.7685 159.558 69.6946 159.248 69.6946C158.921 69.6946 158.661 69.767 158.468 69.9119C158.275 70.054 158.147 70.233 158.085 70.4489L156.406 70.3125C156.491 69.9148 156.658 69.571 156.908 69.2812C157.158 68.9886 157.481 68.7642 157.876 68.608C158.273 68.4489 158.734 68.3693 159.256 68.3693C159.62 68.3693 159.968 68.4119 160.3 68.4972C160.636 68.5824 160.933 68.7145 161.191 68.8935C161.452 69.0724 161.658 69.3026 161.809 69.5838C161.96 69.8622 162.035 70.196 162.035 70.5852V75H160.313V74.0923H160.262C160.157 74.2969 160.016 74.4773 159.84 74.6335C159.664 74.7869 159.452 74.9077 159.205 74.9957C158.958 75.081 158.673 75.1236 158.349 75.1236ZM158.869 73.8707C159.136 73.8707 159.371 73.8182 159.576 73.7131C159.781 73.6051 159.941 73.4602 160.058 73.2784C160.174 73.0966 160.232 72.8906 160.232 72.6605V71.9659C160.175 72.0028 160.097 72.0369 159.998 72.0682C159.901 72.0966 159.792 72.1236 159.67 72.1491C159.548 72.1719 159.425 72.1932 159.303 72.2131C159.181 72.2301 159.07 72.2457 158.971 72.2599C158.758 72.2912 158.572 72.3409 158.413 72.4091C158.254 72.4773 158.13 72.5696 158.042 72.6861C157.954 72.7997 157.91 72.9418 157.91 73.1122C157.91 73.3594 157.999 73.5483 158.178 73.679C158.36 73.8068 158.59 73.8707 158.869 73.8707ZM165.259 71.2159V75H163.443V68.4545H165.173V69.6094H165.25C165.395 69.2287 165.638 68.9276 165.979 68.706C166.32 68.4815 166.733 68.3693 167.219 68.3693C167.673 68.3693 168.07 68.4688 168.408 68.6676C168.746 68.8665 169.009 69.1506 169.196 69.5199C169.384 69.8864 169.477 70.3239 169.477 70.8324V75H167.662V71.1562C167.665 70.7557 167.563 70.4432 167.355 70.2188C167.148 69.9915 166.862 69.8778 166.499 69.8778C166.254 69.8778 166.038 69.9304 165.851 70.0355C165.666 70.1406 165.521 70.294 165.416 70.4957C165.314 70.6946 165.261 70.9347 165.259 71.2159ZM173.865 75.1278C173.195 75.1278 172.618 74.9858 172.135 74.7017C171.655 74.4148 171.286 74.017 171.027 73.5085C170.772 73 170.644 72.4148 170.644 71.7528C170.644 71.0824 170.773 70.4943 171.032 69.9886C171.293 69.4801 171.664 69.0838 172.144 68.7997C172.624 68.5128 173.195 68.3693 173.857 68.3693C174.428 68.3693 174.928 68.473 175.357 68.6804C175.786 68.8878 176.125 69.179 176.375 69.554C176.625 69.929 176.763 70.3693 176.789 70.875H175.076C175.027 70.5483 174.9 70.2855 174.692 70.0866C174.488 69.8849 174.219 69.7841 173.887 69.7841C173.605 69.7841 173.36 69.8608 173.15 70.0142C172.942 70.1648 172.78 70.3849 172.664 70.6747C172.547 70.9645 172.489 71.3153 172.489 71.7273C172.489 72.1449 172.546 72.5 172.659 72.7926C172.776 73.0852 172.939 73.3082 173.15 73.4616C173.36 73.6151 173.605 73.6918 173.887 73.6918C174.094 73.6918 174.28 73.6491 174.445 73.5639C174.613 73.4787 174.75 73.3551 174.858 73.1932C174.969 73.0284 175.042 72.831 175.076 72.6009H176.789C176.76 73.1009 176.624 73.5412 176.38 73.9219C176.138 74.2997 175.804 74.5952 175.378 74.8082C174.952 75.0213 174.448 75.1278 173.865 75.1278ZM180.934 75.1278C180.261 75.1278 179.681 74.9915 179.195 74.7188C178.712 74.4432 178.34 74.054 178.079 73.5511C177.817 73.0455 177.687 72.4474 177.687 71.7571C177.687 71.0838 177.817 70.4929 178.079 69.9844C178.34 69.4759 178.708 69.0795 179.183 68.7955C179.66 68.5114 180.219 68.3693 180.862 68.3693C181.293 68.3693 181.695 68.4389 182.067 68.5781C182.442 68.7145 182.769 68.9205 183.048 69.196C183.329 69.4716 183.548 69.8182 183.704 70.2358C183.86 70.6506 183.938 71.1364 183.938 71.6932V72.1918H178.411V71.0668H182.229C182.229 70.8054 182.173 70.5739 182.059 70.3722C181.945 70.1705 181.788 70.0128 181.586 69.8991C181.387 69.7827 181.156 69.7244 180.891 69.7244C180.616 69.7244 180.371 69.7884 180.158 69.9162C179.948 70.0412 179.783 70.2102 179.664 70.4233C179.545 70.6335 179.484 70.8679 179.481 71.1264V72.196C179.481 72.5199 179.54 72.7997 179.66 73.0355C179.782 73.2713 179.954 73.4531 180.175 73.581C180.397 73.7088 180.66 73.7727 180.964 73.7727C181.165 73.7727 181.35 73.7443 181.518 73.6875C181.685 73.6307 181.829 73.5455 181.948 73.4318C182.067 73.3182 182.158 73.179 182.221 73.0142L183.9 73.125C183.815 73.5284 183.64 73.8807 183.376 74.1818C183.114 74.4801 182.776 74.7131 182.362 74.8807C181.95 75.0455 181.474 75.1278 180.934 75.1278ZM186.184 75.1108C185.903 75.1108 185.661 75.0114 185.46 74.8125C185.261 74.6108 185.161 74.3693 185.161 74.0881C185.161 73.8097 185.261 73.571 185.46 73.3722C185.661 73.1733 185.903 73.0739 186.184 73.0739C186.457 73.0739 186.695 73.1733 186.9 73.3722C187.104 73.571 187.207 73.8097 187.207 74.0881C187.207 74.2756 187.158 74.4474 187.062 74.6037C186.968 74.7571 186.844 74.8807 186.691 74.9744C186.538 75.0653 186.369 75.1108 186.184 75.1108ZM186.184 70.5256C185.903 70.5256 185.661 70.4261 185.46 70.2273C185.261 70.0284 185.161 69.7869 185.161 69.5028C185.161 69.2244 185.261 68.9872 185.46 68.7912C185.661 68.5923 185.903 68.4929 186.184 68.4929C186.457 68.4929 186.695 68.5923 186.9 68.7912C187.104 68.9872 187.207 69.2244 187.207 69.5028C187.207 69.6932 187.158 69.8665 187.062 70.0227C186.968 70.1761 186.844 70.2983 186.691 70.3892C186.538 70.4801 186.369 70.5256 186.184 70.5256ZM195.254 66.2727V75H193.409V68.0241H193.358L191.359 69.277V67.6406L193.52 66.2727H195.254ZM197.328 75V73.6705L200.435 70.794C200.699 70.5384 200.921 70.3082 201.1 70.1037C201.282 69.8991 201.419 69.6989 201.513 69.5028C201.607 69.304 201.654 69.0895 201.654 68.8594C201.654 68.6037 201.596 68.3835 201.479 68.1989C201.363 68.0114 201.203 67.8679 201.002 67.7685C200.8 67.6662 200.571 67.6151 200.316 67.6151C200.049 67.6151 199.816 67.669 199.617 67.777C199.418 67.8849 199.265 68.0398 199.157 68.2415C199.049 68.4432 198.995 68.6832 198.995 68.9616H197.243C197.243 68.3906 197.373 67.8949 197.631 67.4744C197.89 67.054 198.252 66.7287 198.718 66.4986C199.184 66.2685 199.721 66.1534 200.328 66.1534C200.953 66.1534 201.498 66.2642 201.961 66.4858C202.426 66.7045 202.789 67.0085 203.047 67.3977C203.306 67.7869 203.435 68.233 203.435 68.7358C203.435 69.0653 203.37 69.3906 203.239 69.7116C203.111 70.0327 202.882 70.3892 202.553 70.7812C202.223 71.1705 201.759 71.6378 201.159 72.1832L199.885 73.4318V73.4915H203.55V75H197.328ZM208.237 75.1193C207.788 75.1165 207.354 75.0412 206.937 74.8935C206.522 74.7457 206.15 74.5057 205.82 74.1733C205.491 73.8409 205.229 73.4006 205.036 72.8523C204.846 72.304 204.751 71.6307 204.751 70.8324C204.754 70.0994 204.837 69.4446 205.002 68.8679C205.17 68.2884 205.408 67.7969 205.718 67.3935C206.031 66.9901 206.404 66.6832 206.839 66.473C207.273 66.2599 207.761 66.1534 208.3 66.1534C208.883 66.1534 209.397 66.267 209.843 66.4943C210.289 66.7187 210.647 67.0241 210.917 67.4105C211.19 67.7969 211.354 68.2301 211.411 68.7102H209.592C209.521 68.4062 209.371 68.1676 209.144 67.9943C208.917 67.821 208.636 67.7344 208.3 67.7344C207.732 67.7344 207.3 67.9815 207.005 68.4759C206.712 68.9702 206.563 69.642 206.558 70.4915H206.617C206.748 70.233 206.924 70.0128 207.146 69.831C207.37 69.6463 207.624 69.5057 207.908 69.4091C208.195 69.3097 208.498 69.2599 208.816 69.2599C209.333 69.2599 209.793 69.3821 210.197 69.6264C210.6 69.8679 210.918 70.2003 211.151 70.6236C211.384 71.0469 211.501 71.5312 211.501 72.0767C211.501 72.6676 211.363 73.1932 211.087 73.6534C210.815 74.1136 210.433 74.4744 209.941 74.7358C209.452 74.9943 208.884 75.1222 208.237 75.1193ZM208.228 73.6705C208.512 73.6705 208.766 73.6023 208.991 73.4659C209.215 73.3295 209.391 73.1449 209.519 72.9119C209.647 72.679 209.711 72.4176 209.711 72.1278C209.711 71.8381 209.647 71.5781 209.519 71.348C209.394 71.1179 209.221 70.9347 208.999 70.7983C208.778 70.6619 208.525 70.5938 208.241 70.5938C208.028 70.5938 207.83 70.6335 207.648 70.7131C207.469 70.7926 207.312 70.9034 207.175 71.0455C207.042 71.1875 206.937 71.3523 206.86 71.5398C206.783 71.7244 206.745 71.9219 206.745 72.1321C206.745 72.4134 206.809 72.6705 206.937 72.9034C207.067 73.1364 207.244 73.3224 207.465 73.4616C207.69 73.6009 207.944 73.6705 208.228 73.6705ZM216.627 65.8636L213.815 76.3125H212.251L215.063 65.8636H216.627ZM217.485 75V73.6705L220.591 70.794C220.855 70.5384 221.077 70.3082 221.256 70.1037C221.438 69.8991 221.576 69.6989 221.669 69.5028C221.763 69.304 221.81 69.0895 221.81 68.8594C221.81 68.6037 221.752 68.3835 221.635 68.1989C221.519 68.0114 221.36 67.8679 221.158 67.7685C220.956 67.6662 220.728 67.6151 220.472 67.6151C220.205 67.6151 219.972 67.669 219.773 67.777C219.574 67.8849 219.421 68.0398 219.313 68.2415C219.205 68.4432 219.151 68.6832 219.151 68.9616H217.4C217.4 68.3906 217.529 67.8949 217.787 67.4744C218.046 67.054 218.408 66.7287 218.874 66.4986C219.34 66.2685 219.877 66.1534 220.485 66.1534C221.11 66.1534 221.654 66.2642 222.117 66.4858C222.583 66.7045 222.945 67.0085 223.203 67.3977C223.462 67.7869 223.591 68.233 223.591 68.7358C223.591 69.0653 223.526 69.3906 223.395 69.7116C223.267 70.0327 223.039 70.3892 222.709 70.7812C222.38 71.1705 221.915 71.6378 221.316 72.1832L220.042 73.4318V73.4915H223.706V75H217.485ZM228.465 75.1918C227.732 75.1889 227.102 75.0085 226.573 74.6506C226.048 74.2926 225.643 73.7741 225.359 73.0952C225.077 72.4162 224.938 71.5994 224.941 70.6449C224.941 69.6932 225.082 68.8821 225.363 68.2116C225.647 67.5412 226.052 67.0312 226.577 66.6818C227.106 66.3295 227.735 66.1534 228.465 66.1534C229.195 66.1534 229.823 66.3295 230.349 66.6818C230.877 67.0341 231.283 67.5455 231.567 68.2159C231.852 68.8835 231.992 69.6932 231.989 70.6449C231.989 71.6023 231.847 72.4205 231.563 73.0994C231.282 73.7784 230.879 74.2969 230.353 74.6548C229.827 75.0128 229.198 75.1918 228.465 75.1918ZM228.465 73.6619C228.965 73.6619 229.364 73.4105 229.663 72.9077C229.961 72.4048 230.109 71.6506 230.106 70.6449C230.106 69.983 230.038 69.4318 229.901 68.9915C229.768 68.5511 229.577 68.2202 229.33 67.9986C229.086 67.777 228.798 67.6662 228.465 67.6662C227.968 67.6662 227.57 67.9148 227.272 68.4119C226.974 68.9091 226.823 69.6534 226.82 70.6449C226.82 71.3153 226.887 71.875 227.021 72.3239C227.157 72.7699 227.349 73.1051 227.596 73.3295C227.843 73.5511 228.133 73.6619 228.465 73.6619ZM236.493 75.1193C235.89 75.1193 235.353 75.0085 234.882 74.7869C234.413 74.5653 234.041 74.2599 233.765 73.8707C233.49 73.4815 233.346 73.0355 233.335 72.5327H235.125C235.145 72.8707 235.287 73.1449 235.551 73.3551C235.815 73.5653 236.129 73.6705 236.493 73.6705C236.782 73.6705 237.038 73.6065 237.26 73.4787C237.484 73.348 237.659 73.1676 237.784 72.9375C237.912 72.7045 237.975 72.4375 237.975 72.1364C237.975 71.8295 237.91 71.5597 237.779 71.3267C237.652 71.0937 237.474 70.9119 237.247 70.7812C237.02 70.6506 236.76 70.5838 236.467 70.581C236.211 70.581 235.963 70.6335 235.721 70.7386C235.483 70.8437 235.297 70.9872 235.163 71.169L233.522 70.875L233.936 66.2727H239.271V67.7812H235.457L235.231 69.9673H235.282C235.436 69.7514 235.667 69.5724 235.977 69.4304C236.287 69.2884 236.633 69.2173 237.017 69.2173C237.542 69.2173 238.011 69.3409 238.423 69.5881C238.835 69.8352 239.16 70.1747 239.399 70.6065C239.637 71.0355 239.755 71.5298 239.752 72.0895C239.755 72.6776 239.619 73.2003 239.343 73.6577C239.071 74.1122 238.689 74.4702 238.197 74.7315C237.708 74.9901 237.14 75.1193 236.493 75.1193Z" fill="#2E4AAE"/>
<path d="M178.302 89.8844C177.553 90.5263 176.447 90.5263 175.698 89.8844L170 85L184 85L178.302 89.8844Z" fill="white"/>
</g>
<path d="M69.132 285.727H70.2257V290.884C70.2257 291.35 70.1334 291.749 69.9487 292.08C69.7664 292.412 69.5096 292.665 69.1781 292.84C68.8467 293.013 68.4584 293.099 68.0134 293.099C67.6038 293.099 67.2357 293.025 66.9089 292.876C66.5846 292.727 66.3277 292.51 66.1384 292.226C65.9513 291.939 65.8578 291.591 65.8578 291.182H66.948C66.948 291.383 66.9942 291.557 67.0865 291.704C67.1812 291.851 67.3102 291.965 67.4736 292.048C67.6393 292.129 67.8287 292.169 68.0418 292.169C68.2738 292.169 68.4703 292.121 68.6312 292.023C68.7946 291.924 68.9189 291.778 69.0041 291.587C69.0893 291.395 69.132 291.161 69.132 290.884V285.727ZM73.225 293.121C72.8793 293.121 72.5668 293.057 72.2875 292.929C72.0081 292.799 71.7868 292.611 71.6234 292.364C71.4624 292.118 71.3819 291.816 71.3819 291.459C71.3819 291.151 71.4411 290.898 71.5595 290.699C71.6779 290.5 71.8377 290.343 72.0389 290.227C72.2401 290.111 72.465 290.023 72.7136 289.964C72.9622 289.905 73.2155 289.86 73.4735 289.829C73.8002 289.791 74.0654 289.76 74.269 289.737C74.4726 289.71 74.6206 289.669 74.7129 289.612C74.8052 289.555 74.8514 289.463 74.8514 289.335V289.31C74.8514 289 74.7638 288.76 74.5886 288.589C74.4158 288.419 74.1577 288.334 73.8145 288.334C73.457 288.334 73.1752 288.413 72.9693 288.572C72.7657 288.728 72.6248 288.902 72.5467 289.094L71.5488 288.866C71.6672 288.535 71.84 288.268 72.0673 288.064C72.2969 287.858 72.5609 287.709 72.8592 287.616C73.1575 287.522 73.4712 287.474 73.8002 287.474C74.0181 287.474 74.2489 287.5 74.4927 287.553C74.7389 287.602 74.9686 287.695 75.1816 287.83C75.3971 287.964 75.5734 288.157 75.7108 288.408C75.8481 288.657 75.9167 288.98 75.9167 289.378V293H74.8798V292.254H74.8372C74.7685 292.392 74.6655 292.527 74.5282 292.659C74.3909 292.792 74.2145 292.902 73.9991 292.989C73.7837 293.077 73.5256 293.121 73.225 293.121ZM73.4558 292.268C73.7493 292.268 74.0003 292.21 74.2086 292.094C74.4193 291.978 74.5791 291.827 74.688 291.64C74.7993 291.451 74.8549 291.248 74.8549 291.033V290.33C74.8171 290.367 74.7437 290.403 74.6348 290.436C74.5282 290.467 74.4063 290.494 74.269 290.518C74.1317 290.539 73.9979 290.559 73.8677 290.578C73.7375 290.595 73.6286 290.609 73.541 290.621C73.335 290.647 73.1468 290.691 72.9764 290.752C72.8083 290.814 72.6734 290.902 72.5716 291.018C72.4721 291.132 72.4224 291.284 72.4224 291.473C72.4224 291.736 72.5195 291.935 72.7136 292.07C72.9077 292.202 73.1551 292.268 73.4558 292.268ZM78.2928 289.761V293H77.231V287.545H78.2501V288.433H78.3176C78.4431 288.144 78.6396 287.912 78.9071 287.737C79.177 287.562 79.5167 287.474 79.9263 287.474C80.298 287.474 80.6235 287.553 80.9028 287.709C81.1822 287.863 81.3988 288.092 81.5527 288.398C81.7066 288.703 81.7835 289.081 81.7835 289.531V293H80.7217V289.658C80.7217 289.263 80.6187 288.954 80.4128 288.732C80.2068 288.507 79.9239 288.394 79.5641 288.394C79.3178 288.394 79.0989 288.447 78.9071 288.554C78.7177 288.661 78.5674 288.817 78.4561 289.023C78.3472 289.226 78.2928 289.473 78.2928 289.761Z" fill="#8092A3"/>
<path d="M168.105 293V285.727H172.615V286.672H169.202V288.888H172.292V289.829H169.202V293H168.105ZM175.73 293.11C175.192 293.11 174.729 292.995 174.341 292.766C173.955 292.534 173.657 292.208 173.446 291.789C173.238 291.368 173.134 290.874 173.134 290.308C173.134 289.75 173.238 289.257 173.446 288.831C173.657 288.405 173.951 288.072 174.327 287.833C174.706 287.594 175.148 287.474 175.655 287.474C175.963 287.474 176.261 287.525 176.55 287.627C176.839 287.729 177.098 287.889 177.328 288.107C177.557 288.324 177.738 288.607 177.871 288.955C178.004 289.301 178.07 289.721 178.07 290.216V290.592H173.734V289.797H177.029C177.029 289.518 176.973 289.27 176.859 289.055C176.745 288.837 176.585 288.665 176.38 288.54C176.176 288.414 175.937 288.352 175.662 288.352C175.364 288.352 175.103 288.425 174.881 288.572C174.661 288.716 174.49 288.906 174.37 289.14C174.251 289.372 174.192 289.624 174.192 289.896V290.518C174.192 290.882 174.256 291.192 174.384 291.448C174.514 291.704 174.695 291.899 174.927 292.034C175.159 292.167 175.43 292.233 175.74 292.233C175.942 292.233 176.125 292.205 176.291 292.148C176.456 292.089 176.6 292.001 176.72 291.885C176.841 291.769 176.934 291.626 176.997 291.455L178.002 291.636C177.922 291.932 177.777 292.192 177.569 292.414C177.363 292.634 177.104 292.806 176.791 292.929C176.481 293.05 176.127 293.11 175.73 293.11ZM179.233 293V285.727H180.295V288.43H180.359C180.42 288.316 180.509 288.185 180.625 288.036C180.741 287.886 180.902 287.756 181.108 287.645C181.314 287.531 181.586 287.474 181.925 287.474C182.365 287.474 182.758 287.586 183.104 287.808C183.45 288.031 183.721 288.352 183.917 288.771C184.116 289.19 184.215 289.694 184.215 290.283C184.215 290.873 184.117 291.378 183.921 291.8C183.724 292.219 183.454 292.542 183.111 292.769C182.768 292.994 182.376 293.107 181.936 293.107C181.604 293.107 181.333 293.051 181.122 292.94C180.914 292.828 180.751 292.698 180.632 292.549C180.514 292.4 180.423 292.267 180.359 292.151H180.27V293H179.233ZM180.274 290.273C180.274 290.656 180.329 290.992 180.441 291.281C180.552 291.57 180.713 291.796 180.924 291.96C181.134 292.121 181.392 292.201 181.698 292.201C182.015 292.201 182.28 292.117 182.493 291.949C182.706 291.778 182.867 291.548 182.976 291.256C183.087 290.965 183.143 290.637 183.143 290.273C183.143 289.913 183.089 289.59 182.98 289.303C182.873 289.017 182.712 288.791 182.497 288.625C182.284 288.459 182.017 288.376 181.698 288.376C181.39 288.376 181.129 288.456 180.916 288.614C180.706 288.773 180.546 288.994 180.437 289.278C180.328 289.562 180.274 289.894 180.274 290.273Z" fill="#8092A3"/>
<path d="M269.646 285.727H270.978L273.293 291.381H273.378L275.694 285.727H277.025V293H275.981V287.737H275.914L273.769 292.989H272.902L270.758 287.734H270.69V293H269.646V285.727ZM280.023 293.121C279.677 293.121 279.365 293.057 279.085 292.929C278.806 292.799 278.585 292.611 278.421 292.364C278.26 292.118 278.18 291.816 278.18 291.459C278.18 291.151 278.239 290.898 278.357 290.699C278.476 290.5 278.636 290.343 278.837 290.227C279.038 290.111 279.263 290.023 279.511 289.964C279.76 289.905 280.013 289.86 280.271 289.829C280.598 289.791 280.863 289.76 281.067 289.737C281.27 289.71 281.418 289.669 281.511 289.612C281.603 289.555 281.649 289.463 281.649 289.335V289.31C281.649 289 281.562 288.76 281.386 288.589C281.214 288.419 280.956 288.334 280.612 288.334C280.255 288.334 279.973 288.413 279.767 288.572C279.564 288.728 279.423 288.902 279.345 289.094L278.347 288.866C278.465 288.535 278.638 288.268 278.865 288.064C279.095 287.858 279.359 287.709 279.657 287.616C279.955 287.522 280.269 287.474 280.598 287.474C280.816 287.474 281.047 287.5 281.291 287.553C281.537 287.602 281.766 287.695 281.979 287.83C282.195 287.964 282.371 288.157 282.509 288.408C282.646 288.657 282.715 288.98 282.715 289.378V293H281.678V292.254H281.635C281.566 292.392 281.463 292.527 281.326 292.659C281.189 292.792 281.012 292.902 280.797 292.989C280.582 293.077 280.323 293.121 280.023 293.121ZM280.254 292.268C280.547 292.268 280.798 292.21 281.006 292.094C281.217 291.978 281.377 291.827 281.486 291.64C281.597 291.451 281.653 291.248 281.653 291.033V290.33C281.615 290.367 281.542 290.403 281.433 290.436C281.326 290.467 281.204 290.494 281.067 290.518C280.93 290.539 280.796 290.559 280.666 290.578C280.535 290.595 280.426 290.609 280.339 290.621C280.133 290.647 279.945 290.691 279.774 290.752C279.606 290.814 279.471 290.902 279.369 291.018C279.27 291.132 279.22 291.284 279.22 291.473C279.22 291.736 279.317 291.935 279.511 292.07C279.706 292.202 279.953 292.268 280.254 292.268ZM284.029 293V287.545H285.055V288.412H285.112C285.211 288.118 285.387 287.888 285.637 287.719C285.891 287.549 286.177 287.464 286.497 287.464C286.563 287.464 286.641 287.466 286.731 287.471C286.824 287.476 286.896 287.482 286.948 287.489V288.504C286.905 288.492 286.829 288.479 286.721 288.465C286.612 288.449 286.503 288.44 286.394 288.44C286.143 288.44 285.919 288.494 285.723 288.6C285.529 288.704 285.375 288.85 285.261 289.037C285.147 289.222 285.091 289.432 285.091 289.669V293H284.029Z" fill="#8092A3"/>
<path d="M373.007 293H371.843L374.46 285.727H375.728L378.345 293H377.18L375.124 287.048H375.067L373.007 293ZM373.203 290.152H376.981V291.075H373.203V290.152ZM379.21 295.045V287.545H380.247V288.43H380.336C380.397 288.316 380.486 288.185 380.602 288.036C380.718 287.886 380.879 287.756 381.085 287.645C381.291 287.531 381.563 287.474 381.902 287.474C382.342 287.474 382.735 287.586 383.081 287.808C383.426 288.031 383.697 288.352 383.894 288.771C384.093 289.19 384.192 289.694 384.192 290.283C384.192 290.873 384.094 291.378 383.897 291.8C383.701 292.219 383.431 292.542 383.088 292.769C382.744 292.994 382.353 293.107 381.912 293.107C381.581 293.107 381.31 293.051 381.099 292.94C380.891 292.828 380.727 292.698 380.609 292.549C380.491 292.4 380.4 292.267 380.336 292.151H380.272V295.045H379.21ZM380.25 290.273C380.25 290.656 380.306 290.992 380.417 291.281C380.529 291.57 380.69 291.796 380.9 291.96C381.111 292.121 381.369 292.201 381.674 292.201C381.992 292.201 382.257 292.117 382.47 291.949C382.683 291.778 382.844 291.548 382.953 291.256C383.064 290.965 383.12 290.637 383.12 290.273C383.12 289.913 383.065 289.59 382.956 289.303C382.85 289.017 382.689 288.791 382.473 288.625C382.26 288.459 381.994 288.376 381.674 288.376C381.367 288.376 381.106 288.456 380.893 288.614C380.682 288.773 380.523 288.994 380.414 289.278C380.305 289.562 380.25 289.894 380.25 290.273ZM385.282 293V287.545H386.308V288.412H386.365C386.464 288.118 386.639 287.888 386.89 287.719C387.144 287.549 387.43 287.464 387.75 287.464C387.816 287.464 387.894 287.466 387.984 287.471C388.076 287.476 388.149 287.482 388.201 287.489V288.504C388.158 288.492 388.082 288.479 387.974 288.465C387.865 288.449 387.756 288.44 387.647 288.44C387.396 288.44 387.172 288.494 386.976 288.6C386.782 288.704 386.628 288.85 386.514 289.037C386.4 289.222 386.344 289.432 386.344 289.669V293H385.282Z" fill="#8092A3"/>
<path d="M472.831 285.727H474.162L476.478 291.381H476.563L478.878 285.727H480.21V293H479.166V287.737H479.098L476.954 292.989H476.087L473.942 287.734H473.875V293H472.831V285.727ZM483.207 293.121C482.862 293.121 482.549 293.057 482.27 292.929C481.991 292.799 481.769 292.611 481.606 292.364C481.445 292.118 481.364 291.816 481.364 291.459C481.364 291.151 481.424 290.898 481.542 290.699C481.66 290.5 481.82 290.343 482.021 290.227C482.223 290.111 482.447 290.023 482.696 289.964C482.945 289.905 483.198 289.86 483.456 289.829C483.783 289.791 484.048 289.76 484.251 289.737C484.455 289.71 484.603 289.669 484.695 289.612C484.788 289.555 484.834 289.463 484.834 289.335V289.31C484.834 289 484.746 288.76 484.571 288.589C484.398 288.419 484.14 288.334 483.797 288.334C483.439 288.334 483.158 288.413 482.952 288.572C482.748 288.728 482.607 288.902 482.529 289.094L481.531 288.866C481.65 288.535 481.822 288.268 482.05 288.064C482.279 287.858 482.543 287.709 482.842 287.616C483.14 287.522 483.454 287.474 483.783 287.474C484 287.474 484.231 287.5 484.475 287.553C484.721 287.602 484.951 287.695 485.164 287.83C485.379 287.964 485.556 288.157 485.693 288.408C485.83 288.657 485.899 288.98 485.899 289.378V293H484.862V292.254H484.82C484.751 292.392 484.648 292.527 484.511 292.659C484.373 292.792 484.197 292.902 483.982 292.989C483.766 293.077 483.508 293.121 483.207 293.121ZM483.438 292.268C483.732 292.268 483.983 292.21 484.191 292.094C484.402 291.978 484.562 291.827 484.67 291.64C484.782 291.451 484.837 291.248 484.837 291.033V290.33C484.799 290.367 484.726 290.403 484.617 290.436C484.511 290.467 484.389 290.494 484.251 290.518C484.114 290.539 483.98 290.559 483.85 290.578C483.72 290.595 483.611 290.609 483.523 290.621C483.317 290.647 483.129 290.691 482.959 290.752C482.791 290.814 482.656 290.902 482.554 291.018C482.455 291.132 482.405 291.284 482.405 291.473C482.405 291.736 482.502 291.935 482.696 292.07C482.89 292.202 483.138 292.268 483.438 292.268ZM487.689 295.045C487.531 295.045 487.386 295.032 487.256 295.006C487.126 294.983 487.029 294.957 486.965 294.928L487.22 294.058C487.415 294.11 487.587 294.133 487.739 294.126C487.89 294.119 488.024 294.062 488.14 293.955C488.259 293.849 488.363 293.675 488.453 293.433L488.584 293.071L486.588 287.545H487.725L489.106 291.778H489.163L490.544 287.545H491.684L489.436 293.728C489.332 294.012 489.2 294.252 489.039 294.449C488.878 294.648 488.686 294.797 488.463 294.896C488.241 294.996 487.983 295.045 487.689 295.045Z" fill="#8092A3"/>
<path d="M579.005 285.727H580.099V290.884C580.099 291.35 580.006 291.749 579.822 292.08C579.639 292.412 579.383 292.665 579.051 292.84C578.72 293.013 578.331 293.099 577.886 293.099C577.477 293.099 577.109 293.025 576.782 292.876C576.458 292.727 576.201 292.51 576.011 292.226C575.824 291.939 575.731 291.591 575.731 291.182H576.821C576.821 291.383 576.867 291.557 576.96 291.704C577.054 291.851 577.183 291.965 577.347 292.048C577.512 292.129 577.702 292.169 577.915 292.169C578.147 292.169 578.343 292.121 578.504 292.023C578.668 291.924 578.792 291.778 578.877 291.587C578.962 291.395 579.005 291.161 579.005 290.884V285.727ZM584.966 290.738V287.545H586.031V293H584.987V292.055H584.93C584.805 292.347 584.604 292.589 584.327 292.783C584.052 292.975 583.71 293.071 583.3 293.071C582.95 293.071 582.64 292.994 582.37 292.84C582.103 292.684 581.892 292.453 581.738 292.148C581.586 291.842 581.511 291.465 581.511 291.015V287.545H582.572V290.887C582.572 291.259 582.675 291.555 582.881 291.775C583.087 291.995 583.355 292.105 583.684 292.105C583.883 292.105 584.08 292.055 584.277 291.956C584.476 291.857 584.64 291.706 584.771 291.505C584.903 291.304 584.968 291.048 584.966 290.738ZM588.42 289.761V293H587.358V287.545H588.377V288.433H588.445C588.57 288.144 588.767 287.912 589.034 287.737C589.304 287.562 589.644 287.474 590.053 287.474C590.425 287.474 590.75 287.553 591.03 287.709C591.309 287.863 591.526 288.092 591.68 288.398C591.834 288.703 591.91 289.081 591.91 289.531V293H590.849V289.658C590.849 289.263 590.746 288.954 590.54 288.732C590.334 288.507 590.051 288.394 589.691 288.394C589.445 288.394 589.226 288.447 589.034 288.554C588.845 288.661 588.694 288.817 588.583 289.023C588.474 289.226 588.42 289.473 588.42 289.761Z" fill="#8092A3"/>
<defs>
<filter id="filter0_d_244_8698" x="93" y="29" width="170" height="77.3658" filterUnits="userSpaceOnUse" color-interpolation-filters="sRGB">
<feFlood flood-opacity="0" result="BackgroundImageFix"/>
<feColorMatrix in="SourceAlpha" type="matrix" values="0 0 0 0 0 0 0 0 0 0 0 0 0 0 0 0 0 0 127 0" result="hardAlpha"/>
<feOffset dy="2"/>
<feGaussianBlur stdDeviation="7"/>
<feComposite in2="hardAlpha" operator="out"/>
<feColorMatrix type="matrix" values="0 0 0 0 0.228681 0 0 0 0 0.255763 0 0 0 0 0.308333 0 0 0 0.16 0"/>
<feBlend mode="normal" in2="BackgroundImageFix" result="effect1_dropShadow_244_8698"/>
<feBlend mode="normal" in="SourceGraphic" in2="effect1_dropShadow_244_8698" result="shape"/>
</filter>
<clipPath id="clip0_244_8698">
<rect width="606" height="184" fill="white" transform="translate(26 72)"/>
</clipPath>
</defs>
</svg>
