<svg width="18" height="18" viewBox="0 0 18 18" fill="none" xmlns="http://www.w3.org/2000/svg">
<path d="M6.25 9H2.21667C1.70329 9 1.44659 9 1.25051 9.09991C1.07803 9.18779 0.937795 9.32803 0.849911 9.50051C0.75 9.6966 0.75 9.95329 0.75 10.4667V15.7833C0.75 16.2967 0.75 16.5534 0.849911 16.7495C0.937795 16.922 1.07803 17.0622 1.25051 17.1501C1.44659 17.25 1.70329 17.25 2.21667 17.25H6.25M6.25 17.25H11.75M6.25 17.25L6.25 5.88333C6.25 5.36995 6.25 5.11326 6.34991 4.91718C6.43779 4.74469 6.57803 4.60446 6.75051 4.51658C6.94659 4.41667 7.20329 4.41667 7.71667 4.41667H10.2833C10.7967 4.41667 11.0534 4.41667 11.2495 4.51658C11.422 4.60446 11.5622 4.74469 11.6501 4.91718C11.75 5.11326 11.75 5.36995 11.75 5.88333V17.25M11.75 17.25H15.7833C16.2967 17.25 16.5534 17.25 16.7495 17.1501C16.922 17.0622 17.0622 16.922 17.1501 16.7495C17.25 16.5534 17.25 16.2967 17.25 15.7833V2.21667C17.25 1.70329 17.25 1.44659 17.1501 1.25051C17.0622 1.07803 16.922 0.937795 16.7495 0.849911C16.5534 0.75 16.2967 0.75 15.7833 0.75H13.2167C12.7033 0.75 12.4466 0.75 12.2505 0.849911C12.078 0.937795 11.9378 1.07803 11.8499 1.25051C11.75 1.44659 11.75 1.70329 11.75 2.21667V5.33333" stroke="#B4C5D9" stroke-width="1.5" stroke-linecap="round" stroke-linejoin="round"/>
</svg>
