<svg width="24" height="24" viewBox="0 0 24 24" fill="none" xmlns="http://www.w3.org/2000/svg">
<rect width="24" height="24" rx="12" fill="#2CA066"/>
<circle cx="12" cy="12" r="12" fill="#2CA066"/>
<path d="M8.40368 17V6.81818H12.3014C13.0372 6.81818 13.6487 6.93419 14.1359 7.16619C14.6265 7.39489 14.9927 7.7081 15.2346 8.10582C15.4799 8.50355 15.6025 8.95431 15.6025 9.4581C15.6025 9.8724 15.523 10.227 15.3639 10.522C15.2048 10.8137 14.991 11.0507 14.7226 11.233C14.4541 11.4152 14.1541 11.5462 13.8227 11.6257V11.7251C14.184 11.745 14.5303 11.8561 14.8618 12.0582C15.1965 12.2571 15.47 12.5388 15.6821 12.9034C15.8942 13.268 16.0003 13.7088 16.0003 14.2259C16.0003 14.7528 15.8727 15.2268 15.6175 15.6477C15.3622 16.0653 14.9778 16.3951 14.464 16.6371C13.9503 16.879 13.304 17 12.5251 17H8.40368ZM10.2481 15.4588H12.2318C12.9013 15.4588 13.3836 15.3312 13.6785 15.076C13.9768 14.8175 14.126 14.486 14.126 14.0817C14.126 13.7801 14.0514 13.5083 13.9023 13.2663C13.7531 13.0211 13.541 12.8288 13.2659 12.6896C12.9908 12.5471 12.6627 12.4759 12.2815 12.4759H10.2481V15.4588ZM10.2481 11.1484H12.0727C12.3909 11.1484 12.6776 11.0904 12.9328 10.9744C13.188 10.8551 13.3885 10.6877 13.5344 10.4723C13.6835 10.2536 13.7581 9.99503 13.7581 9.69673C13.7581 9.30232 13.6189 8.97751 13.3405 8.7223C13.0654 8.46709 12.656 8.33949 12.1125 8.33949H10.2481V11.1484Z" fill="white"/>
</svg>
