<svg width="22" height="22" viewBox="0 0 22 22" fill="none" xmlns="http://www.w3.org/2000/svg">
<path d="M8.25 11H4.21667C3.70329 11 3.44659 11 3.25051 11.0999C3.07803 11.1878 2.93779 11.328 2.84991 11.5005C2.75 11.6966 2.75 11.9533 2.75 12.4667V17.7833C2.75 18.2967 2.75 18.5534 2.84991 18.7495C2.93779 18.922 3.07803 19.0622 3.25051 19.1501C3.44659 19.25 3.70329 19.25 4.21667 19.25H8.25M8.25 19.25H13.75M8.25 19.25L8.25 7.88333C8.25 7.36995 8.25 7.11326 8.34991 6.91718C8.43779 6.74469 8.57803 6.60446 8.75051 6.51658C8.94659 6.41667 9.20329 6.41667 9.71667 6.41667H12.2833C12.7967 6.41667 13.0534 6.41667 13.2495 6.51658C13.422 6.60446 13.5622 6.74469 13.6501 6.91718C13.75 7.11326 13.75 7.36995 13.75 7.88333V19.25M13.75 19.25H17.7833C18.2967 19.25 18.5534 19.25 18.7495 19.1501C18.922 19.0622 19.0622 18.922 19.1501 18.7495C19.25 18.5534 19.25 18.2967 19.25 17.7833V4.21667C19.25 3.70329 19.25 3.44659 19.1501 3.25051C19.0622 3.07803 18.922 2.93779 18.7495 2.84991C18.5534 2.75 18.2967 2.75 17.7833 2.75H15.2167C14.7033 2.75 14.4466 2.75 14.2505 2.84991C14.078 2.93779 13.9378 3.07803 13.8499 3.25051C13.75 3.44659 13.75 3.70329 13.75 4.21667V7.33333" stroke="#B4C5D9" stroke-width="1.5" stroke-linecap="round" stroke-linejoin="round"/>
</svg>
