<svg width="22" height="22" viewBox="0 0 22 22" fill="none" xmlns="http://www.w3.org/2000/svg">
<path d="M19.25 9.16667H2.75M14.6667 1.83333V5.5M7.33333 1.83333V5.5M8.25 14.6667L10.0833 16.5L14.2083 12.375M7.15 20.1667H14.85C16.3901 20.1667 17.1602 20.1667 17.7485 19.8669C18.2659 19.6033 18.6866 19.1826 18.9503 18.6651C19.25 18.0769 19.25 17.3068 19.25 15.7667V8.06667C19.25 6.52652 19.25 5.75645 18.9503 5.16819C18.6866 4.65075 18.2659 4.23005 17.7485 3.9664C17.1602 3.66667 16.3901 3.66667 14.85 3.66667H7.15C5.60986 3.66667 4.83978 3.66667 4.25153 3.9664C3.73408 4.23005 3.31338 4.65075 3.04973 5.16819C2.75 5.75645 2.75 6.52652 2.75 8.06667V15.7667C2.75 17.3068 2.75 18.0769 3.04973 18.6651C3.31338 19.1826 3.73408 19.6033 4.25153 19.8669C4.83978 20.1667 5.60986 20.1667 7.15 20.1667Z" stroke="#B4C5D9" stroke-width="1.5" stroke-linecap="round" stroke-linejoin="round"/>
</svg>
