<svg width="20" height="19" viewBox="0 0 20 19" fill="none" xmlns="http://www.w3.org/2000/svg">
<path d="M7.24992 18.25V11.4667C7.24992 10.9533 7.24992 10.6966 7.34983 10.5005C7.43772 10.328 7.57795 10.1878 7.75043 10.0999C7.94652 10 8.20321 10 8.71659 10H11.2833C11.7966 10 12.0533 10 12.2494 10.0999C12.4219 10.1878 12.5621 10.328 12.65 10.5005C12.7499 10.6966 12.7499 10.9533 12.7499 11.4667V18.25M0.833252 7.70833L9.11992 1.49333C9.43549 1.25666 9.59328 1.13832 9.76657 1.0927C9.91953 1.05243 10.0803 1.05243 10.2333 1.0927C10.4066 1.13832 10.5644 1.25666 10.8799 1.49333L19.1666 7.70833M2.66659 6.33333V15.3167C2.66659 16.3434 2.66659 16.8568 2.86641 17.249C3.04218 17.5939 3.32264 17.8744 3.66761 18.0502C4.05978 18.25 4.57316 18.25 5.59992 18.25H14.3999C15.4267 18.25 15.9401 18.25 16.3322 18.0502C16.6772 17.8744 16.9577 17.5939 17.1334 17.249C17.3333 16.8568 17.3333 16.3434 17.3333 15.3167V6.33333L11.7599 2.15333C11.1288 1.67998 10.8132 1.4433 10.4666 1.35207C10.1607 1.27153 9.83914 1.27153 9.53322 1.35207C9.18663 1.4433 8.87106 1.67998 8.23992 2.15333L2.66659 6.33333Z" stroke="#B4C5D9" stroke-width="1.5" stroke-linecap="round" stroke-linejoin="round"/>
</svg>
