<svg width="20" height="19" viewBox="0 0 20 19" fill="none" xmlns="http://www.w3.org/2000/svg">
<path d="M7.25 18.25V11.4667C7.25 10.9533 7.25 10.6966 7.34991 10.5005C7.43779 10.328 7.57803 10.1878 7.75051 10.0999C7.94659 10 8.20329 10 8.71667 10H11.2833C11.7967 10 12.0534 10 12.2495 10.0999C12.422 10.1878 12.5622 10.328 12.6501 10.5005C12.75 10.6966 12.75 10.9533 12.75 11.4667V18.25M0.83333 7.70833L9.12 1.49333C9.43557 1.25666 9.59336 1.13832 9.76665 1.0927C9.91961 1.05243 10.0804 1.05243 10.2334 1.0927C10.4066 1.13832 10.5644 1.25666 10.88 1.49333L19.1667 7.70833M2.66667 6.33333V15.3167C2.66667 16.3434 2.66667 16.8568 2.86649 17.249C3.04226 17.5939 3.32272 17.8744 3.66768 18.0502C4.05986 18.25 4.57324 18.25 5.6 18.25H14.4C15.4268 18.25 15.9401 18.25 16.3323 18.0502C16.6773 17.8744 16.9577 17.5939 17.1335 17.249C17.3333 16.8568 17.3333 16.3434 17.3333 15.3167V6.33333L11.76 2.15333C11.1289 1.67998 10.8133 1.4433 10.4667 1.35207C10.1608 1.27153 9.83922 1.27153 9.53329 1.35207C9.18671 1.4433 8.87114 1.67998 8.24 2.15333L2.66667 6.33333Z" stroke="#B4C5D9" stroke-width="1.5" stroke-linecap="round" stroke-linejoin="round"/>
</svg>
