<svg width="22" height="22" viewBox="0 0 22 22" fill="none" xmlns="http://www.w3.org/2000/svg">
<path d="M8.25004 19.25V12.4667C8.25004 11.9533 8.25004 11.6966 8.34995 11.5005C8.43784 11.328 8.57807 11.1878 8.75055 11.0999C8.94664 11 9.20333 11 9.71671 11H12.2834C12.7968 11 13.0534 11 13.2495 11.0999C13.422 11.1878 13.5622 11.328 13.6501 11.5005C13.75 11.6966 13.75 11.9533 13.75 12.4667V19.25M1.83337 8.70833L10.12 2.49333C10.4356 2.25666 10.5934 2.13832 10.7667 2.0927C10.9197 2.05243 11.0804 2.05243 11.2334 2.0927C11.4067 2.13832 11.5645 2.25666 11.88 2.49333L20.1667 8.70833M3.66671 7.33333V16.3167C3.66671 17.3434 3.66671 17.8568 3.86653 18.249C4.0423 18.5939 4.32276 18.8744 4.66773 19.0502C5.0599 19.25 5.57328 19.25 6.60004 19.25H15.4C16.4268 19.25 16.9402 19.25 17.3324 19.0502C17.6773 18.8744 17.9578 18.5939 18.1336 18.249C18.3334 17.8568 18.3334 17.3434 18.3334 16.3167V7.33333L12.76 3.15333C12.1289 2.67998 11.8133 2.4433 11.4668 2.35207C11.1608 2.27153 10.8393 2.27153 10.5333 2.35207C10.1868 2.4433 9.87118 2.67998 9.24004 3.15333L3.66671 7.33333Z" stroke="white" stroke-width="1.5" stroke-linecap="round" stroke-linejoin="round"/>
</svg>
