<svg width="18" height="20" viewBox="0 0 18 20" fill="none" xmlns="http://www.w3.org/2000/svg">
<path d="M17.25 8.16667H0.75M12.6667 0.833333V4.5M5.33333 0.833333V4.5M6.25 13.6667L8.08333 15.5L12.2083 11.375M5.15 19.1667H12.85C14.3901 19.1667 15.1602 19.1667 15.7485 18.8669C16.2659 18.6033 16.6866 18.1826 16.9503 17.6651C17.25 17.0769 17.25 16.3068 17.25 14.7667V7.06667C17.25 5.52652 17.25 4.75645 16.9503 4.16819C16.6866 3.65075 16.2659 3.23005 15.7485 2.9664C15.1602 2.66667 14.3901 2.66667 12.85 2.66667H5.15C3.60986 2.66667 2.83978 2.66667 2.25153 2.9664C1.73408 3.23005 1.31338 3.65075 1.04973 4.16819C0.75 4.75645 0.75 5.52652 0.75 7.06667V14.7667C0.75 16.3068 0.75 17.0769 1.04973 17.6651C1.31338 18.1826 1.73408 18.6033 2.25153 18.8669C2.83978 19.1667 3.60986 19.1667 5.15 19.1667Z" stroke="#B4C5D9" stroke-width="1.5" stroke-linecap="round" stroke-linejoin="round"/>
</svg>
