<svg width="20" height="18" viewBox="0 0 20 18" fill="none" xmlns="http://www.w3.org/2000/svg">
<path d="M15.5001 12.5171C16.8347 13.1876 17.9789 14.2635 18.8141 15.6088C18.9795 15.8752 19.0622 16.0085 19.0907 16.1929C19.1488 16.5678 18.8925 17.0287 18.5434 17.177C18.3716 17.25 18.1783 17.25 17.7918 17.25M13.6668 8.57122C15.025 7.89623 15.9584 6.49462 15.9584 4.875C15.9584 3.25538 15.025 1.85377 13.6668 1.17878M11.8334 4.875C11.8334 7.15317 9.9866 9 7.70843 9C5.43025 9 3.58343 7.15317 3.58343 4.875C3.58343 2.59683 5.43025 0.75 7.70843 0.75C9.9866 0.75 11.8334 2.59683 11.8334 4.875ZM1.34606 15.3601C2.8075 13.1658 5.11369 11.75 7.70843 11.75C10.3032 11.75 12.6094 13.1658 14.0708 15.3601C14.391 15.8409 14.551 16.0812 14.5326 16.3883C14.5183 16.6273 14.3616 16.92 14.1705 17.0645C13.9252 17.25 13.5878 17.25 12.9129 17.25H2.50392C1.82908 17.25 1.49167 17.25 1.24633 17.0645C1.05531 16.92 0.898592 16.6273 0.884242 16.3883C0.865812 16.0812 1.02589 15.8409 1.34606 15.3601Z" stroke="white" stroke-width="1.5" stroke-linecap="round" stroke-linejoin="round"/>
</svg>
