<svg width="22" height="22" viewBox="0 0 22 22" fill="none" xmlns="http://www.w3.org/2000/svg">
<path d="M16.5 14.5171C17.8345 15.1876 18.9788 16.2635 19.8139 17.6088C19.9793 17.8752 20.062 18.0085 20.0906 18.1929C20.1487 18.5678 19.8924 19.0287 19.5432 19.177C19.3714 19.25 19.1782 19.25 18.7916 19.25M14.6666 10.5712C16.0249 9.89623 16.9583 8.49462 16.9583 6.875C16.9583 5.25538 16.0249 3.85377 14.6666 3.17878M12.8333 6.875C12.8333 9.15317 10.9865 11 8.70831 11C6.43013 11 4.58331 9.15317 4.58331 6.875C4.58331 4.59683 6.43013 2.75 8.70831 2.75C10.9865 2.75 12.8333 4.59683 12.8333 6.875ZM2.34593 17.3601C3.80738 15.1658 6.11356 13.75 8.70831 13.75C11.303 13.75 13.6092 15.1658 15.0707 17.3601C15.3908 17.8409 15.5509 18.0812 15.5325 18.3883C15.5181 18.6273 15.3614 18.92 15.1704 19.0645C14.9251 19.25 14.5876 19.25 13.9128 19.25H3.5038C2.82896 19.25 2.49154 19.25 2.24621 19.0645C2.05518 18.92 1.89847 18.6273 1.88412 18.3883C1.86569 18.0812 2.02577 17.8409 2.34593 17.3601Z" stroke="#B4C5D9" stroke-width="1.5" stroke-linecap="round" stroke-linejoin="round"/>
</svg>
