<svg width="56" height="22" viewBox="0 0 56 22" fill="none" xmlns="http://www.w3.org/2000/svg">
<rect width="22" height="22" rx="11" fill="#D34040" fill-opacity="0.1"/>
<path d="M11 6.33333V15.6667M11 15.6667L14.5 12.1667M11 15.6667L7.5 12.1667" stroke="#D34040" stroke-width="1.5" stroke-linecap="round" stroke-linejoin="round"/>
<path d="M30.8026 9.91619V11.3565H26.8224V9.91619H30.8026ZM36.1293 6.27273V15H34.2841V8.02415H34.233L32.2344 9.27699V7.64062L34.3949 6.27273H36.1293ZM38.2035 15V13.6705L41.31 10.794C41.5742 10.5384 41.7958 10.3082 41.9748 10.1037C42.1566 9.89915 42.2944 9.69886 42.3881 9.50284C42.4819 9.30398 42.5288 9.08949 42.5288 8.85938C42.5288 8.60369 42.4705 8.38352 42.354 8.19886C42.2376 8.01136 42.0785 7.8679 41.8768 7.76847C41.6751 7.66619 41.4464 7.61506 41.1907 7.61506C40.9237 7.61506 40.6907 7.66903 40.4918 7.77699C40.293 7.88494 40.1396 8.03977 40.0316 8.24148C39.9237 8.44318 39.8697 8.68324 39.8697 8.96165H38.1183C38.1183 8.39062 38.2475 7.89489 38.506 7.47443C38.7646 7.05398 39.1268 6.72869 39.5927 6.49858C40.0586 6.26847 40.5955 6.15341 41.2035 6.15341C41.8285 6.15341 42.3725 6.2642 42.8356 6.4858C43.3015 6.70455 43.6637 7.00852 43.9222 7.39773C44.1808 7.78693 44.31 8.23295 44.31 8.7358C44.31 9.06534 44.2447 9.39062 44.114 9.71165C43.9862 10.0327 43.7575 10.3892 43.4279 10.7812C43.0984 11.1705 42.6339 11.6378 42.0344 12.1832L40.7603 13.4318V13.4915H44.4251V15H38.2035ZM50.5391 13.3636V12.9034C50.5391 12.554 50.6129 12.233 50.7607 11.9403C50.9112 11.6449 51.1286 11.4091 51.4126 11.233C51.6996 11.054 52.049 10.9645 52.4609 10.9645C52.8786 10.9645 53.2294 11.0526 53.5135 11.2287C53.8004 11.4048 54.0163 11.6406 54.1612 11.9361C54.3089 12.2287 54.3828 12.5511 54.3828 12.9034V13.3636C54.3828 13.7131 54.3089 14.0355 54.1612 14.331C54.0135 14.6236 53.7962 14.858 53.5092 15.0341C53.2223 15.2131 52.8729 15.3026 52.4609 15.3026C52.0433 15.3026 51.6925 15.2131 51.4084 15.0341C51.1243 14.858 50.9084 14.6236 50.7607 14.331C50.6129 14.0355 50.5391 13.7131 50.5391 13.3636ZM51.7791 12.9034V13.3636C51.7791 13.5653 51.8274 13.7557 51.924 13.9347C52.0234 14.1136 52.2024 14.2031 52.4609 14.2031C52.7195 14.2031 52.8956 14.1151 52.9893 13.9389C53.0859 13.7628 53.1342 13.571 53.1342 13.3636V12.9034C53.1342 12.696 53.0888 12.5028 52.9979 12.3239C52.907 12.1449 52.728 12.0554 52.4609 12.0554C52.2053 12.0554 52.0277 12.1449 51.9283 12.3239C51.8288 12.5028 51.7791 12.696 51.7791 12.9034ZM46.0604 8.36932V7.90909C46.0604 7.55682 46.1357 7.23437 46.2862 6.94176C46.4368 6.64631 46.6541 6.41051 46.9382 6.23438C47.2251 6.05824 47.5717 5.97017 47.978 5.97017C48.3984 5.97017 48.7507 6.05824 49.0348 6.23438C49.3189 6.41051 49.5348 6.64631 49.6825 6.94176C49.8303 7.23437 49.9041 7.55682 49.9041 7.90909V8.36932C49.9041 8.72159 49.8288 9.04403 49.6783 9.33665C49.5305 9.62926 49.3132 9.86364 49.0263 10.0398C48.7422 10.2131 48.3928 10.2997 47.978 10.2997C47.5632 10.2997 47.2124 10.2116 46.9254 10.0355C46.6413 9.85653 46.4254 9.62216 46.2777 9.33239C46.1328 9.03977 46.0604 8.71875 46.0604 8.36932ZM47.3089 7.90909V8.36932C47.3089 8.5767 47.3572 8.76847 47.4538 8.9446C47.5533 9.12074 47.728 9.20881 47.978 9.20881C48.2393 9.20881 48.4169 9.12074 48.5107 8.9446C48.6072 8.76847 48.6555 8.5767 48.6555 8.36932V7.90909C48.6555 7.7017 48.6101 7.50852 48.5192 7.32955C48.4283 7.15057 48.2479 7.06108 47.978 7.06108C47.7251 7.06108 47.5504 7.15199 47.4538 7.33381C47.3572 7.51562 47.3089 7.70739 47.3089 7.90909ZM46.6229 15L52.6229 6.27273H53.7393L47.7393 15H46.6229Z" fill="#D34040"/>
</svg>
