<svg width="60" height="60" viewBox="0 0 60 60" fill="none" xmlns="http://www.w3.org/2000/svg">
<rect width="60" height="60" rx="12" fill="#E8EDF5"/>
<path opacity="0.4" fill-rule="evenodd" clip-rule="evenodd" d="M28.6667 24.6667C27.194 24.6667 26.0001 25.8606 26.0001 27.3333V38C26.0001 39.4728 27.194 40.6667 28.6667 40.6667H31.3334C32.8062 40.6667 34.0001 39.4728 34.0001 38V27.3333C34.0001 25.8606 32.8062 24.6667 31.3334 24.6667H28.6667ZM19.3334 30C17.8607 30 16.6667 31.1939 16.6667 32.6667V38C16.6667 39.4728 17.8607 40.6667 19.3334 40.6667H22.0001C23.4728 40.6667 24.6667 39.4728 24.6667 38V32.6667C24.6667 31.1939 23.4728 30 22.0001 30H19.3334Z" fill="#DC8724"/>
<path d="M35.3333 22C35.3333 20.5272 36.5272 19.3333 37.9999 19.3333H40.6666C42.1393 19.3333 43.3333 20.5272 43.3333 22V38C43.3333 39.4728 42.1393 40.6667 40.6666 40.6667H37.9999C36.5272 40.6667 35.3333 39.4728 35.3333 38V22Z" fill="#DC8724"/>
</svg>
