<svg width="60" height="60" viewBox="0 0 60 60" fill="none" xmlns="http://www.w3.org/2000/svg">
<rect width="60" height="60" rx="12" fill="#E8EDF5"/>
<path opacity="0.4" d="M23.3333 18C20.3879 18 17.9999 20.388 18 23.3333L18 24.6667H42V23.3333C42 20.388 39.6121 18 36.6667 18C35.5527 18 27.9246 18 24.6667 18C24.0249 18 23.5527 18 23.3333 18Z" fill="#24BD58"/>
<path fill-rule="evenodd" clip-rule="evenodd" d="M24.6667 16.6667C25.403 16.6667 26 17.2636 26 18V20.6667C26 21.4031 25.403 22 24.6667 22C23.9303 22 23.3333 21.4031 23.3333 20.6667V18C23.3333 17.2636 23.9303 16.6667 24.6667 16.6667ZM18 27.3333V36.6667C18 39.612 20.388 42 23.3333 42H36.6667C39.612 42 42 39.612 42 36.6667V27.3333H18ZM34 30C34.3413 30 34.6973 30.1147 34.9587 30.3747C35.4787 30.896 35.4787 31.7707 34.9587 32.292L30.9587 36.292C30.4373 36.812 29.5627 36.812 29.0413 36.292L26.3747 33.6253C25.8547 33.104 25.8547 32.2293 26.3747 31.708C26.896 31.188 27.7707 31.188 28.292 31.708L30 33.416L33.0413 30.3747C33.3027 30.1147 33.6587 30 34 30ZM36.6667 18C36.6667 17.2636 36.0697 16.6667 35.3333 16.6667C34.597 16.6667 34 17.2636 34 18V20.6667C34 21.4031 34.597 22 35.3333 22C36.0697 22 36.6667 21.4031 36.6667 20.6667V18Z" fill="#24BD58"/>
</svg>
