<svg width="61" height="22" viewBox="0 0 61 22" fill="none" xmlns="http://www.w3.org/2000/svg">
<rect width="22" height="22" rx="11" fill="#2CA066" fill-opacity="0.15"/>
<path d="M11 15.0833V6.91667M11 6.91667L6.91663 11M11 6.91667L15.0833 11" stroke="#2CA066" stroke-width="1.5" stroke-linecap="round" stroke-linejoin="round"/>
<path d="M29.3153 13.6705V7.63636H30.8409V13.6705H29.3153ZM27.0611 11.4162V9.89062H33.0952V11.4162H27.0611ZM38.0309 15.1193C37.3945 15.1193 36.8278 15.0099 36.3306 14.7912C35.8363 14.5696 35.4457 14.2656 35.1587 13.8793C34.8746 13.4901 34.7283 13.0412 34.7198 12.5327H36.5778C36.5891 12.7457 36.6587 12.9332 36.7866 13.0952C36.9173 13.2543 37.0906 13.3778 37.3065 13.4659C37.5224 13.554 37.7653 13.598 38.0352 13.598C38.3164 13.598 38.565 13.5483 38.7809 13.4489C38.9968 13.3494 39.1658 13.2116 39.288 13.0355C39.4102 12.8594 39.4712 12.6562 39.4712 12.4261C39.4712 12.1932 39.4059 11.9872 39.2752 11.8082C39.1474 11.6264 38.9627 11.4844 38.7212 11.3821C38.4826 11.2798 38.1985 11.2287 37.869 11.2287H37.055V9.87358H37.869C38.1474 9.87358 38.3931 9.82528 38.6062 9.72869C38.8221 9.6321 38.9897 9.49858 39.109 9.32812C39.2283 9.15483 39.288 8.95312 39.288 8.72301C39.288 8.50426 39.2354 8.3125 39.1303 8.14773C39.0281 7.98011 38.8832 7.84943 38.6957 7.75568C38.511 7.66193 38.2951 7.61506 38.0479 7.61506C37.7979 7.61506 37.5692 7.66051 37.3619 7.75142C37.1545 7.83949 36.9883 7.96591 36.8633 8.13068C36.7383 8.29545 36.6715 8.48864 36.663 8.71023H34.8945C34.9031 8.20739 35.0465 7.7642 35.3249 7.38068C35.6033 6.99716 35.9783 6.69744 36.4499 6.48153C36.9244 6.26278 37.4599 6.15341 38.0565 6.15341C38.6587 6.15341 39.1857 6.26278 39.6374 6.48153C40.0891 6.70028 40.44 6.99574 40.69 7.3679C40.9428 7.73722 41.0678 8.15199 41.065 8.61222C41.0678 9.10085 40.9158 9.50852 40.609 9.83523C40.305 10.1619 39.9087 10.3693 39.4201 10.4574V10.5256C40.0621 10.608 40.5508 10.831 40.886 11.1946C41.2241 11.5554 41.3917 12.0071 41.3888 12.5497C41.3917 13.0469 41.2482 13.4886 40.9585 13.875C40.6715 14.2614 40.2752 14.5653 39.7695 14.7869C39.2638 15.0085 38.6843 15.1193 38.0309 15.1193ZM42.5831 13.4659V12.0128L46.2266 6.27273H47.4794V8.28409H46.7379L44.4411 11.919V11.9872H49.6186V13.4659H42.5831ZM46.772 15V13.0227L46.8061 12.3793V6.27273H48.5362V15H46.772ZM55.625 13.3636V12.9034C55.625 12.554 55.6989 12.233 55.8466 11.9403C55.9972 11.6449 56.2145 11.4091 56.4986 11.233C56.7855 11.054 57.1349 10.9645 57.5469 10.9645C57.9645 10.9645 58.3153 11.0526 58.5994 11.2287C58.8864 11.4048 59.1023 11.6406 59.2472 11.9361C59.3949 12.2287 59.4688 12.5511 59.4688 12.9034V13.3636C59.4688 13.7131 59.3949 14.0355 59.2472 14.331C59.0994 14.6236 58.8821 14.858 58.5952 15.0341C58.3082 15.2131 57.9588 15.3026 57.5469 15.3026C57.1293 15.3026 56.7784 15.2131 56.4943 15.0341C56.2102 14.858 55.9943 14.6236 55.8466 14.331C55.6989 14.0355 55.625 13.7131 55.625 13.3636ZM56.8651 12.9034V13.3636C56.8651 13.5653 56.9134 13.7557 57.0099 13.9347C57.1094 14.1136 57.2884 14.2031 57.5469 14.2031C57.8054 14.2031 57.9815 14.1151 58.0753 13.9389C58.1719 13.7628 58.2202 13.571 58.2202 13.3636V12.9034C58.2202 12.696 58.1747 12.5028 58.0838 12.3239C57.9929 12.1449 57.8139 12.0554 57.5469 12.0554C57.2912 12.0554 57.1136 12.1449 57.0142 12.3239C56.9148 12.5028 56.8651 12.696 56.8651 12.9034ZM51.1463 8.36932V7.90909C51.1463 7.55682 51.2216 7.23437 51.3722 6.94176C51.5227 6.64631 51.7401 6.41051 52.0241 6.23438C52.3111 6.05824 52.6577 5.97017 53.0639 5.97017C53.4844 5.97017 53.8366 6.05824 54.1207 6.23438C54.4048 6.41051 54.6207 6.64631 54.7685 6.94176C54.9162 7.23437 54.9901 7.55682 54.9901 7.90909V8.36932C54.9901 8.72159 54.9148 9.04403 54.7642 9.33665C54.6165 9.62926 54.3991 9.86364 54.1122 10.0398C53.8281 10.2131 53.4787 10.2997 53.0639 10.2997C52.6491 10.2997 52.2983 10.2116 52.0114 10.0355C51.7273 9.85653 51.5114 9.62216 51.3636 9.33239C51.2188 9.03977 51.1463 8.71875 51.1463 8.36932ZM52.3949 7.90909V8.36932C52.3949 8.5767 52.4432 8.76847 52.5398 8.9446C52.6392 9.12074 52.8139 9.20881 53.0639 9.20881C53.3253 9.20881 53.5028 9.12074 53.5966 8.9446C53.6932 8.76847 53.7415 8.5767 53.7415 8.36932V7.90909C53.7415 7.7017 53.696 7.50852 53.6051 7.32955C53.5142 7.15057 53.3338 7.06108 53.0639 7.06108C52.8111 7.06108 52.6364 7.15199 52.5398 7.33381C52.4432 7.51562 52.3949 7.70739 52.3949 7.90909ZM51.7088 15L57.7088 6.27273H58.8253L52.8253 15H51.7088Z" fill="#2CA066"/>
</svg>
