<svg width="60" height="60" viewBox="0 0 60 60" fill="none" xmlns="http://www.w3.org/2000/svg">
<rect width="60" height="60" rx="12" fill="#E8EDF5"/>
<path d="M34.6667 18C31.3529 18 28.6667 20.6867 28.6667 24C28.6667 27.3133 31.3529 30 34.6667 30C37.9804 30 40.6667 27.3133 40.6667 24C40.6667 20.6867 37.9804 18 34.6667 18ZM30.0833 31.792C27.6379 32.8013 26 35.2747 26 38V40.6667C26 41.4027 26.5969 42 27.3333 42H42C42.7364 42 43.3333 41.4027 43.3333 40.6667V38C43.3333 35.3387 41.6864 32.9253 39.25 31.8747C38.9071 31.7267 38.5075 31.7227 38.1667 31.8747C36.9869 32.404 35.8376 32.6667 34.6667 32.6667C33.4997 32.6667 32.3464 32.3893 31.1251 31.8333C30.7892 31.68 30.4244 31.6507 30.0833 31.792Z" fill="#156AEB"/>
<path opacity="0.4" d="M24.6666 19.3333C21.7212 19.3333 19.3333 21.7213 19.3333 24.6667C19.3333 27.612 21.7212 30 24.6666 30C25.7725 30 26.782 29.696 27.6704 29.0747C25.392 25.688 25.7149 22.4453 26.9566 19.8333C26.2474 19.4973 25.4685 19.3333 24.6666 19.3333ZM20.75 31.792C18.3045 32.8013 16.6666 35.2747 16.6666 38V40.6667C16.6666 41.4027 17.2636 42 18 42L23.537 42.0027C23.225 40.9893 23.3168 39.3467 23.3373 38.0173C23.3806 35.1947 24.548 33.1813 25.0052 32.6506C24.1649 32.644 23.1565 32.44 22.4166 32.1253C22.238 32.0493 22.1342 31.9893 21.7917 31.8333C21.4558 31.68 21.091 31.6507 20.75 31.792Z" fill="#156AEB"/>
</svg>
