<svg width="29" height="28" viewBox="0 0 29 28" fill="none" xmlns="http://www.w3.org/2000/svg">
<path fill-rule="evenodd" clip-rule="evenodd" d="M2.25 7.41666C2.25 6.86438 2.69772 6.41666 3.25 6.41666H25.75C26.3023 6.41666 26.75 6.86438 26.75 7.41666V9.54167C26.75 10.0939 26.3023 10.5417 25.75 10.5417H3.25C2.69771 10.5417 2.25 10.0939 2.25 9.54166V7.41666ZM3.61111 14.2917C3.61111 13.7394 4.05883 13.2917 4.61111 13.2917H12.1389C12.6912 13.2917 13.1389 13.7394 13.1389 14.2917V24.6667C13.1389 25.219 12.6912 25.6667 12.1389 25.6667H4.61111C4.05883 25.6667 3.61111 25.219 3.61111 24.6667V14.2917ZM16.8611 13.2917C16.3088 13.2917 15.8611 13.7394 15.8611 14.2917V24.6667C15.8611 25.219 16.3088 25.6667 16.8611 25.6667H24.3889C24.9412 25.6667 25.3889 25.219 25.3889 24.6667V14.2917C25.3889 13.7394 24.9412 13.2917 24.3889 13.2917H16.8611Z" fill="#E9974A"/>
<path opacity="0.3" d="M17.7094 1.41164C18.3125 0.965079 19.1274 1.14608 19.5294 1.81592C19.9315 2.48575 19.7685 3.39076 19.1654 3.83732L14.5 7.29167L9.83458 3.83732C9.23146 3.39076 9.06849 2.48575 9.47057 1.81592C9.87264 1.14608 10.6875 0.965079 11.2906 1.41164L14.5 3.7879L17.7094 1.41164Z" fill="#E9974A"/>
</svg>
